#usda 1.0
(
    customLayerData = {
        string creator = "Model IO export preview 1.10"
    }
    defaultPrim = "Horse"
    upAxis = "Y"
    metersPerUnit = 1
)

def Xform "Horse" (
    assetInfo = {
        string name = "Horse"
    }
    kind = "component"
)
{
    def Scope "Geom"
    {
        def Xform "Horse_Cylinder_Material_003"
        {
            def Mesh "Horse_Cylinder_Material_003" (
                prepend apiSchemas = ["MaterialBindingAPI"]
            )
            {
                rel material:binding = </Horse/Materials/Material_003>
                int[] faceVertexCounts = [3, 3, 3, 3, 3, 3, 3, 3, 3, 3, 3, 3, 3, 3, 3, 3, 3, 3, 3, 3, 3, 3, 3, 3, 3, 3, 3, 3, 3, 3, 3, 3, 3, 3, 3, 3, 3, 3, 3, 3, 3, 3, 3, 3, 3, 3, 3, 3, 3, 3, 3, 3, 3, 3, 3, 3, 3, 3, 3, 3, 3, 3, 3, 3, 3, 3, 3, 3, 3, 3, 3, 3, 3, 3, 3, 3, 3, 3, 3, 3, 3, 3, 3, 3, 3, 3, 3, 3, 3, 3, 3, 3, 3, 3, 3, 3, 3, 3, 3, 3, 3, 3, 3, 3, 3, 3, 3, 3, 3, 3, 3, 3, 3, 3, 3, 3, 3, 3, 3, 3, 3, 3, 3, 3, 3, 3, 3, 3, 3, 3, 3, 3, 3, 3, 3, 3, 3, 3, 3, 3, 3, 3, 3, 3, 3, 3, 3, 3, 3, 3, 3, 3, 3, 3, 3, 3, 3, 3, 3, 3, 3, 3, 3, 3, 3, 3, 3, 3, 3, 3, 3, 3, 3, 3, 3, 3, 3, 3, 3, 3, 3, 3, 3, 3, 3, 3, 3, 3, 3, 3, 3, 3, 3, 3, 3, 3, 3, 3, 3, 3, 3, 3, 3, 3, 3, 3, 3, 3, 3, 3, 3, 3, 3, 3, 3, 3, 3, 3, 3, 3, 3, 3, 3, 3, 3, 3, 3, 3, 3, 3, 3, 3, 3, 3, 3, 3, 3, 3, 3, 3, 3, 3, 3, 3, 3, 3, 3, 3, 3, 3, 3, 3, 3, 3, 3, 3, 3, 3, 3, 3, 3, 3, 3, 3, 3, 3, 3, 3, 3, 3, 3, 3, 3, 3, 3, 3, 3, 3, 3, 3, 3, 3, 3, 3, 3, 3, 3, 3, 3, 3, 3, 3, 3, 3, 3, 3, 3, 3, 3, 3, 3, 3, 3, 3, 3, 3, 3, 3, 3, 3, 3, 3, 3, 3, 3, 3, 3, 3, 3, 3, 3, 3, 3, 3, 3, 3, 3, 3, 3, 3, 3, 3, 3, 3, 3, 3, 3, 3, 3, 3, 3, 3, 3, 3, 3, 3, 3, 3, 3, 3, 3, 3, 3, 3, 3, 3, 3, 3, 3, 3, 3, 3, 3, 3, 3, 3, 3, 3, 3, 3, 3, 3, 3, 3, 3, 3, 3, 3, 3, 3, 3, 3, 3, 3, 3, 3, 3, 3, 3, 3, 3, 3, 3, 3, 3, 3, 3, 3, 3, 3, 3, 3, 3, 3, 3, 3, 3, 3, 3, 3, 3, 3, 3, 3, 3, 3, 3, 3, 3, 3, 3, 3, 3, 3, 3, 3, 3, 3, 3, 3, 3, 3, 3, 3, 3, 3, 3, 3, 3, 3, 3, 3, 3, 3, 3, 3, 3, 3, 3, 3, 3, 3, 3, 3, 3, 3, 3, 3, 3, 3, 3, 3, 3, 3, 3, 3, 3, 3, 3, 3, 3, 3, 3, 3, 3, 3, 3, 3, 3, 3, 3, 3, 3, 3, 3, 3, 3, 3, 3, 3, 3, 3, 3, 3, 3, 3, 3, 3]
                int[] faceVertexIndices = [1041, 1036, 1032, 1036, 1028, 1032, 1024, 1020, 1018, 1024, 1018, 1016, 1014, 1012, 1010, 1014, 1010, 1009, 1008, 1007, 1006, 1008, 1006, 1005, 1004, 1003, 1002, 1003, 1001, 1002, 1000, 999, 1037, 999, 998, 1037, 997, 996, 995, 997, 995, 994, 993, 992, 991, 992, 990, 991, 989, 988, 987, 988, 986, 987, 985, 984, 983, 982, 981, 980, 981, 979, 980, 978, 977, 976, 975, 974, 973, 975, 973, 972, 971, 970, 969, 968, 971, 969, 967, 968, 969, 966, 965, 964, 965, 963, 964, 962, 961, 960, 962, 960, 959, 958, 962, 959, 957, 956, 955, 957, 955, 954, 953, 952, 951, 950, 949, 948, 950, 948, 947, 946, 945, 944, 945, 943, 944, 942, 941, 940, 942, 940, 939, 938, 937, 936, 938, 936, 935, 934, 933, 932, 933, 931, 932, 930, 929, 928, 930, 928, 927, 926, 925, 924, 926, 924, 923, 922, 921, 920, 921, 919, 920, 918, 917, 916, 917, 915, 916, 914, 913, 912, 913, 911, 912, 910, 909, 908, 909, 907, 908, 906, 905, 904, 906, 904, 903, 902, 901, 900, 901, 899, 900, 898, 897, 896, 897, 895, 896, 894, 893, 892, 893, 891, 892, 890, 889, 888, 889, 887, 888, 886, 885, 884, 885, 883, 884, 882, 881, 880, 881, 879, 880, 878, 877, 876, 878, 876, 875, 874, 873, 872, 871, 874, 872, 870, 871, 872, 869, 868, 867, 868, 866, 867, 865, 864, 863, 864, 862, 863, 861, 860, 859, 858, 857, 856, 857, 855, 856, 854, 853, 852, 854, 852, 851, 850, 849, 848, 849, 847, 848, 846, 845, 844, 843, 842, 841, 840, 839, 838, 837, 836, 835, 836, 834, 835, 833, 832, 831, 832, 830, 831, 1038, 1033, 1025, 1038, 1025, 1029, 1021, 829, 828, 827, 826, 825, 827, 825, 824, 823, 822, 821, 823, 821, 820, 819, 818, 817, 816, 815, 814, 815, 813, 814, 812, 811, 810, 809, 808, 807, 806, 805, 804, 805, 803, 804, 802, 801, 800, 802, 800, 799, 798, 797, 796, 797, 795, 796, 794, 793, 792, 793, 791, 792, 790, 789, 788, 789, 787, 788, 786, 785, 784, 783, 782, 781, 782, 780, 781, 779, 778, 777, 779, 777, 776, 775, 774, 773, 775, 773, 772, 771, 770, 769, 771, 769, 768, 767, 766, 765, 767, 765, 764, 763, 762, 761, 763, 761, 760, 759, 758, 757, 758, 756, 757, 755, 754, 753, 755, 753, 752, 751, 750, 749, 751, 749, 748, 747, 746, 745, 746, 744, 745, 743, 742, 741, 742, 740, 741, 739, 738, 737, 739, 737, 736, 735, 734, 733, 734, 732, 733, 731, 730, 729, 728, 727, 726, 728, 726, 725, 724, 723, 722, 721, 720, 719, 721, 719, 718, 717, 716, 715, 717, 715, 714, 713, 712, 711, 712, 710, 711, 709, 708, 707, 708, 706, 707, 705, 704, 703, 705, 703, 702, 701, 700, 699, 701, 699, 698, 697, 696, 695, 697, 695, 694, 693, 692, 691, 692, 690, 691, 689, 688, 687, 686, 685, 684, 686, 684, 683, 682, 681, 680, 681, 679, 680, 678, 677, 676, 677, 675, 676, 674, 673, 672, 671, 670, 669, 671, 669, 668, 667, 666, 665, 664, 663, 662, 661, 664, 662, 660, 661, 662, 659, 658, 657, 656, 655, 654, 656, 654, 653, 652, 651, 650, 649, 648, 647, 646, 645, 644, 646, 644, 643, 642, 641, 640, 642, 640, 639, 638, 637, 636, 637, 635, 636, 1039, 1034, 1030, 1034, 1026, 1030, 1022, 634, 633, 634, 632, 633, 631, 630, 629, 630, 628, 629, 627, 626, 625, 626, 624, 625, 623, 622, 621, 623, 621, 620, 619, 618, 617, 616, 615, 614, 616, 614, 613, 612, 611, 610, 611, 609, 610, 608, 607, 606, 607, 605, 606, 604, 603, 602, 601, 600, 599, 598, 601, 599, 597, 598, 599, 596, 595, 594, 593, 592, 591, 592, 590, 591, 589, 588, 587, 588, 586, 587, 585, 584, 583, 584, 582, 583, 581, 580, 579, 580, 578, 579, 577, 576, 575, 576, 574, 575, 573, 572, 571, 573, 571, 570, 569, 568, 567, 566, 565, 564, 563, 562, 561, 563, 561, 560, 559, 558, 557, 559, 557, 556, 555, 554, 553, 555, 553, 552, 551, 550, 549, 551, 549, 548, 547, 546, 545, 546, 544, 545, 543, 542, 541, 542, 540, 541, 539, 538, 537, 539, 537, 536, 535, 534, 533, 534, 532, 533, 531, 530, 529, 531, 529, 528, 527, 526, 525, 527, 525, 524, 523, 522, 521, 522, 520, 521, 519, 518, 517, 516, 515, 514, 515, 513, 514, 512, 511, 510, 509, 512, 510, 508, 509, 510, 507, 506, 505, 506, 504, 505, 503, 502, 501, 500, 503, 501, 499, 500, 501, 498, 497, 496, 498, 496, 495, 494, 493, 492, 491, 490, 489, 491, 489, 488, 487, 486, 485, 486, 484, 485, 483, 482, 481, 483, 481, 480, 479, 478, 477, 479, 477, 476, 475, 474, 473, 475, 473, 472, 471, 470, 469, 471, 469, 468, 467, 466, 465, 466, 464, 465, 463, 462, 461, 462, 460, 461, 459, 458, 457, 458, 456, 457, 455, 454, 453, 454, 452, 453, 451, 450, 449, 450, 448, 449, 447, 446, 445, 447, 445, 444, 443, 442, 441, 442, 440, 441, 439, 438, 437, 438, 436, 437, 435, 434, 433, 434, 432, 433, 431, 430, 429, 430, 428, 429, 427, 426, 425, 426, 424, 425, 423, 422, 421, 422, 420, 421, 419, 418, 417, 419, 417, 416, 415, 414, 413, 412, 415, 413, 411, 412, 413, 410, 409, 408, 409, 407, 408, 406, 405, 404, 405, 403, 404, 402, 401, 400, 399, 398, 397, 398, 396, 397, 395, 394, 393, 395, 393, 392, 391, 390, 389, 388, 387, 386, 385, 384, 383, 382, 381, 380, 381, 379, 380, 378, 377, 376, 377, 375, 376, 374, 373, 372, 371, 370, 369, 370, 368, 369, 367, 366, 365, 366, 364, 365, 363, 362, 361, 362, 360, 361, 359, 358, 357, 356, 355, 354, 356, 354, 353, 352, 351, 350, 349, 348, 347, 346, 345, 344, 346, 344, 343, 342, 341, 340, 342, 340, 339, 338, 337, 336, 338, 336, 335, 334, 333, 332, 333, 331, 332, 330, 329, 328, 329, 327, 328, 326, 325, 324, 323, 322, 321, 322, 320, 321, 319, 318, 317, 319, 317, 316, 315, 314, 313, 315, 313, 312, 311, 310, 309, 311, 309, 308, 307, 306, 305, 307, 305, 304, 303, 302, 301, 302, 300, 301, 299, 298, 297, 298, 296, 297, 295, 294, 293, 295, 293, 292, 291, 290, 289, 291, 289, 288, 287, 286, 285, 286, 284, 285, 283, 282, 281, 282, 280, 281, 279, 278, 277, 279, 277, 276, 275, 274, 273, 274, 272, 273, 271, 270, 269, 268, 267, 266, 268, 266, 265, 264, 263, 262, 261, 260, 259, 260, 258, 259, 257, 256, 255, 257, 255, 254, 253, 252, 251, 252, 250, 251, 249, 248, 247, 248, 246, 247, 245, 1040, 1035, 245, 1035, 1027, 1031, 1023, 1019, 1031, 1019, 1017, 1015, 1013, 1011, 1015, 1011, 244, 243, 242, 241, 242, 240, 241, 239, 238, 237, 236, 235, 234, 236, 234, 233, 232, 231, 230, 231, 229, 230, 228, 227, 226, 227, 225, 226, 224, 223, 222, 221, 220, 219, 221, 219, 218, 217, 216, 215, 214, 213, 212, 211, 214, 212, 210, 211, 212, 209, 208, 207, 206, 205, 204, 206, 204, 203, 202, 201, 200, 199, 198, 197, 196, 195, 194, 196, 194, 193, 192, 191, 190, 192, 190, 189, 188, 187, 186, 187, 185, 186, 184, 183, 182, 183, 181, 182, 180, 179, 178, 179, 177, 178, 176, 175, 174, 175, 173, 174, 172, 171, 170, 171, 169, 170, 168, 167, 166, 168, 166, 165, 164, 163, 162, 161, 160, 159, 161, 159, 158, 157, 156, 155, 156, 154, 155, 153, 152, 151, 152, 150, 151, 149, 148, 147, 146, 145, 144, 143, 146, 144, 142, 143, 144, 141, 140, 139, 138, 137, 136, 137, 135, 136, 134, 133, 132, 133, 131, 132, 130, 129, 128, 129, 127, 128, 126, 125, 124, 125, 123, 124, 122, 121, 120, 121, 119, 120, 118, 117, 116, 118, 116, 115, 114, 113, 112, 111, 564, 565, 110, 109, 108, 107, 106, 105, 104, 103, 102, 104, 102, 101, 100, 99, 98, 97, 96, 95, 94, 93, 92, 93, 91, 92, 90, 89, 88, 87, 86, 85, 86, 84, 85, 83, 82, 81, 82, 80, 81, 79, 78, 77, 76, 75, 74, 75, 73, 74, 72, 71, 70, 71, 69, 70, 68, 67, 66, 65, 64, 63, 64, 62, 63, 61, 60, 59, 60, 58, 59, 57, 56, 55, 57, 55, 54, 53, 52, 51, 52, 50, 51, 49, 48, 47, 48, 46, 47, 45, 44, 43, 44, 42, 43, 41, 40, 39, 40, 38, 39, 37, 36, 35, 36, 34, 35, 33, 32, 31, 32, 30, 31, 29, 28, 27, 28, 26, 27, 25, 24, 23, 24, 22, 23, 21, 20, 19, 18, 17, 16, 17, 15, 16, 14, 13, 12, 13, 11, 12, 10, 9, 8, 7, 6, 5, 6, 4, 5, 3, 2, 1, 2, 0, 1]
                normal3f[] normals = [(0.0518, -0.9753, 0.2148), (0.0518, -0.9753, 0.2148), (0.0518, -0.9753, 0.2148), (0.0518, -0.9753, 0.2148), (-0.9927, -0.0974, 0.0718), (-0.9927, -0.0974, 0.0718), (-0.9927, -0.0974, 0.0718), (-0.9927, -0.0974, 0.0718), (-0.9393, -0.2858, 0.1899), (-0.9393, -0.2858, 0.1899), (-0.9393, -0.2858, 0.1899), (-0.0517, -0.9753, 0.2149), (-0.0517, -0.9753, 0.2149), (-0.0517, -0.9753, 0.2149), (-0.0517, -0.9753, 0.2149), (0.9927, -0.0974, 0.0717), (0.9927, -0.0974, 0.0717), (0.9927, -0.0974, 0.0717), (0.9927, -0.0974, 0.0717), (0.9392, -0.2859, 0.19), (0.9392, -0.2859, 0.19), (0.9392, -0.2859, 0.19), (0.9399, 0.1964, 0.2794), (0.9399, 0.1964, 0.2794), (0.9399, 0.1964, 0.2794), (0.9399, 0.1964, 0.2794), (0.7558, -0.183, 0.6287), (0.7558, -0.183, 0.6287), (0.7558, -0.183, 0.6287), (0.7558, -0.183, 0.6287), (0.1652, 0.8287, -0.5347), (0.1652, 0.8287, -0.5347), (0.1652, 0.8287, -0.5347), (0.1652, 0.8287, -0.5347), (0.187, -0.5212, 0.8327), (0.187, -0.5212, 0.8327), (0.187, -0.5212, 0.8327), (0.187, -0.5212, 0.8327), (-0.9397, 0.1963, 0.2799), (-0.9397, 0.1963, 0.2799), (-0.9397, 0.1963, 0.2799), (-0.9397, 0.1963, 0.2799), (-0.7558, -0.1827, 0.6288), (-0.7558, -0.1827, 0.6288), (-0.7558, -0.1827, 0.6288), (-0.7558, -0.1827, 0.6288), (-0.1652, 0.8287, -0.5347), (-0.1652, 0.8287, -0.5347), (-0.1652, 0.8287, -0.5347), (-0.1652, 0.8287, -0.5347), (-0.1871, -0.5212, 0.8327), (-0.1871, -0.5212, 0.8327), (-0.1871, -0.5212, 0.8327), (-0.1871, -0.5212, 0.8327), (0.1979, 0.4039, -0.8932), (0.1979, 0.4039, -0.8932), (0.1979, 0.4039, -0.8932), (0.1979, 0.4039, -0.8932), (0.0001, -0.1878, -0.9822), (0.0001, -0.1878, -0.9822), (0.0001, -0.1878, -0.9822), (0.0001, -0.1878, -0.9822), (-0.0046, -0.2185, 0.9758), (-0.0046, -0.2185, 0.9758), (-0.0046, -0.2185, 0.9758), (-0.0046, -0.2185, 0.9758), (0.9951, -0.0714, 0.0689), (0.9951, -0.0714, 0.0689), (0.9951, -0.0714, 0.0689), (-0.9837, -0.0022, 0.1796), (-0.9837, -0.0022, 0.1796), (-0.9837, -0.0022, 0.1796), (-0.9837, -0.0022, 0.1796), (0.0045, -0.2185, 0.9758), (0.0045, -0.2185, 0.9758), (0.0045, -0.2185, 0.9758), (0.0045, -0.2185, 0.9758), (-0.9951, -0.0714, 0.0689), (-0.9951, -0.0714, 0.0689), (-0.9951, -0.0714, 0.0689), (0.9837, -0.0022, 0.1796), (0.9837, -0.0022, 0.1796), (0.9837, -0.0022, 0.1796), (0.9837, -0.0022, 0.1796), (-0.0001, -0.1878, -0.9822), (-0.0001, -0.1878, -0.9822), (-0.0001, -0.1878, -0.9822), (-0.0001, -0.1878, -0.9822), (0.2369, 0.4593, 0.8561), (0.2369, 0.4593, 0.8561), (0.2369, 0.4593, 0.8561), (-0.0048, 0.3377, -0.9412), (-0.0048, 0.3377, -0.9412), (-0.0048, 0.3377, -0.9412), (-0.0048, 0.3377, -0.9412), (0.9954, -0.0325, 0.0901), (0.9954, -0.0325, 0.0901), (0.9954, -0.0325, 0.0901), (-0.9893, -0.017, 0.145), (-0.9893, -0.017, 0.145), (-0.9893, -0.017, 0.145), (0.0049, 0.3377, -0.9412), (0.0049, 0.3377, -0.9412), (0.0049, 0.3377, -0.9412), (0.0049, 0.3377, -0.9412), (-0.9954, -0.0325, 0.0901), (-0.9954, -0.0325, 0.0901), (-0.9954, -0.0325, 0.0901), (0.9893, -0.017, 0.145), (0.9893, -0.017, 0.145), (0.9893, -0.017, 0.145), (0, 0.9466, -0.3223), (-0.4528, -0.5289, 0.7178), (-0.4528, -0.5289, 0.7178), (-0.4528, -0.5289, 0.7178), (-0.7398, -0.422, 0.524), (-0.7398, -0.422, 0.524), (-0.7398, -0.422, 0.524), (-0.7398, -0.422, 0.524), (-0.6509, -0.4136, 0.6366), (-0.6509, -0.4136, 0.6366), (-0.6509, -0.4136, 0.6366), (-0.6509, -0.4136, 0.6366), (-0.4265, -0.4211, 0.8005), (-0.4265, -0.4211, 0.8005), (-0.4265, -0.4211, 0.8005), (-0.4265, -0.4211, 0.8005), (-0.9003, -0.3426, 0.2684), (-0.9003, -0.3426, 0.2684), (-0.9003, -0.3426, 0.2684), (-0.9003, -0.3426, 0.2684), (-0.5582, -0.2867, 0.7786), (-0.5582, -0.2867, 0.7786), (-0.5582, -0.2867, 0.7786), (-0.5582, -0.2867, 0.7786), (-0.7516, -0.5391, 0.3801), (-0.7516, -0.5391, 0.3801), (-0.7516, -0.5391, 0.3801), (-0.7516, -0.5391, 0.3801), (-0.5525, -0.598, 0.5807), (-0.5525, -0.598, 0.5807), (-0.5525, -0.598, 0.5807), (-0.2322, 0.5408, 0.8084), (-0.2322, 0.5408, 0.8084), (-0.2322, 0.5408, 0.8084), (-0.2322, 0.5408, 0.8084), (-0.2322, 0.5408, 0.8084), (-0.2356, 0.3475, -0.9076), (-0.2356, 0.3475, -0.9076), (-0.2356, 0.3475, -0.9076), (-0.9361, -0.1267, 0.3282), (-0.9361, -0.1267, 0.3282), (-0.9361, -0.1267, 0.3282), (-0.9361, -0.1267, 0.3282), (-0.5792, -0.4141, 0.7021), (-0.5792, -0.4141, 0.7021), (-0.5792, -0.4141, 0.7021), (-0.5792, -0.4141, 0.7021), (-0.9621, -0.1907, 0.1951), (-0.9621, -0.1907, 0.1951), (-0.9621, -0.1907, 0.1951), (-0.9621, -0.1907, 0.1951), (0.4666, 0.8131, -0.3479), (0.4666, 0.8131, -0.3479), (0.4666, 0.8131, -0.3479), (-0.6303, -0.4348, 0.6432), (-0.6303, -0.4348, 0.6432), (-0.6303, -0.4348, 0.6432), (-0.6303, -0.4348, 0.6432), (-0.793, -0.329, 0.5129), (-0.793, -0.329, 0.5129), (-0.793, -0.329, 0.5129), (-0.793, -0.329, 0.5129), (-0.0571, -0.073, -0.9957), (-0.0571, -0.073, -0.9957), (-0.0571, -0.073, -0.9957), (-0.0571, -0.073, -0.9957), (-0.111, 0.2066, -0.9721), (-0.111, 0.2066, -0.9721), (-0.111, 0.2066, -0.9721), (-0.111, 0.2066, -0.9721), (-0.6676, -0.4929, 0.5581), (-0.6676, -0.4929, 0.5581), (-0.6676, -0.4929, 0.5581), (-0.6676, -0.4929, 0.5581), (0.8798, 0.4624, -0.1101), (0.8798, 0.4624, -0.1101), (0.8798, 0.4624, -0.1101), (0.8798, 0.4624, -0.1101), (0.7671, 0.5771, -0.2803), (0.7671, 0.5771, -0.2803), (0.7671, 0.5771, -0.2803), (0.7671, 0.5771, -0.2803), (-0.2693, -0.9622, -0.0419), (-0.2693, -0.9622, -0.0419), (-0.2693, -0.9622, -0.0419), (-0.2693, -0.9622, -0.0419), (-0.9129, 0.0416, 0.4061), (-0.9129, 0.0416, 0.4061), (-0.9129, 0.0416, 0.4061), (-0.8909, -0.0501, 0.4515), (-0.8909, -0.0501, 0.4515), (-0.8909, -0.0501, 0.4515), (-0.3014, -0.9029, -0.3065), (-0.3014, -0.9029, -0.3065), (-0.3014, -0.9029, -0.3065), (-0.3014, -0.9029, -0.3065), (-0.963, -0.2214, 0.1536), (-0.963, -0.2214, 0.1536), (-0.963, -0.2214, 0.1536), (-0.1444, 0.2971, -0.9439), (-0.1444, 0.2971, -0.9439), (-0.1444, 0.2971, -0.9439), (-0.1444, 0.2971, -0.9439), (-0.1444, 0.2971, -0.9439), (-0.9948, 0.0651, 0.0789), (-0.9948, 0.0651, 0.0789), (-0.9948, 0.0651, 0.0789), (-0.2056, -0.1651, 0.9646), (-0.2056, -0.1651, 0.9646), (-0.2056, -0.1651, 0.9646), (-0.2056, -0.1651, 0.9646), (0.483, -0.3334, -0.8097), (0.483, -0.3334, -0.8097), (0.483, -0.3334, -0.8097), (-0.2511, -0.2689, -0.9299), (-0.2511, -0.2689, -0.9299), (-0.2511, -0.2689, -0.9299), (-0.2511, -0.2689, -0.9299), (-0.9956, -0.0663, 0.066), (-0.9956, -0.0663, 0.066), (-0.9956, -0.0663, 0.066), (-0.9956, -0.0663, 0.066), (0.9373, -0.3184, 0.1418), (0.9373, -0.3184, 0.1418), (0.9373, -0.3184, 0.1418), (0.9373, -0.3184, 0.1418), (-0.7827, 0.6139, -0.1021), (-0.7827, 0.6139, -0.1021), (-0.7827, 0.6139, -0.1021), (0.9422, 0.3343, -0.0229), (0.9422, 0.3343, -0.0229), (0.9422, 0.3343, -0.0229), (0.9422, 0.3343, -0.0229), (-0.0019, 0.8033, 0.5956), (0.0017, 0.1994, -0.9799), (0.9981, -0.0506, -0.0364), (0.9981, -0.0506, -0.0364), (0.9981, -0.0506, -0.0364), (0.9981, -0.0506, -0.0364), (0.0009, -0.0103, 0.9999), (0.0009, -0.0103, 0.9999), (0.0009, -0.0103, 0.9999), (0.0009, -0.0103, 0.9999), (-0.9985, -0.0534, 0.0118), (-0.9985, -0.0534, 0.0118), (-0.9985, -0.0534, 0.0118), (-0.9985, -0.0534, 0.0118), (-0.0005, -0.0231, -0.9997), (-0.0005, -0.0231, -0.9997), (-0.0005, -0.0231, -0.9997), (-0.0005, -0.0231, -0.9997), (-0.9897, 0.1271, 0.0656), (-0.9897, 0.1271, 0.0656), (-0.9897, 0.1271, 0.0656), (0.001, -0.1298, 0.9915), (0.001, -0.1298, 0.9915), (0.001, -0.1298, 0.9915), (0.001, -0.1298, 0.9915), (0.9879, 0.1532, 0.0219), (0.9879, 0.1532, 0.0219), (0.9879, 0.1532, 0.0219), (0.0008, 0.0343, 0.9994), (0.0008, 0.0343, 0.9994), (0.0008, 0.0343, 0.9994), (0.0008, 0.0343, 0.9994), (-0.8928, 0.4359, -0.1137), (-0.8928, 0.4359, -0.1137), (-0.8928, 0.4359, -0.1137), (-0.8928, 0.4359, -0.1137), (-0.3264, -0.0265, 0.9448), (-0.3264, -0.0265, 0.9448), (-0.3264, -0.0265, 0.9448), (-0.3264, -0.0265, 0.9448), (-0.9984, 0.0245, -0.0501), (-0.9984, 0.0245, -0.0501), (-0.9984, 0.0245, -0.0501), (-0.9984, 0.0245, -0.0501), (-0.1114, -0.9704, 0.2143), (-0.1114, -0.9704, 0.2143), (-0.1114, -0.9704, 0.2143), (-0.1114, -0.9704, 0.2143), (-0.5348, 0.0334, -0.8443), (-0.5348, 0.0334, -0.8443), (-0.5348, 0.0334, -0.8443), (-0.5348, 0.0334, -0.8443), (0.9194, 0.3906, -0.0472), (0.9194, 0.3906, -0.0472), (0.9194, 0.3906, -0.0472), (0.9194, 0.3906, -0.0472), (0.0202, 0.7973, 0.6032), (0.0202, 0.7973, 0.6032), (0.0202, 0.7973, 0.6032), (0.0202, 0.7973, 0.6032), (-0.9769, 0.2116, 0.029), (-0.9769, 0.2116, 0.029), (-0.9769, 0.2116, 0.029), (-0.9769, 0.2116, 0.029), (-0.0161, 0.1828, -0.983), (-0.0161, 0.1828, -0.983), (-0.0161, 0.1828, -0.983), (-0.0161, 0.1828, -0.983), (0.9841, -0.1678, 0.0581), (0.9841, -0.1678, 0.0581), (0.9841, -0.1678, 0.0581), (0.9841, -0.1678, 0.0581), (0.0151, 0.3207, 0.9471), (0.0151, 0.3207, 0.9471), (0.0151, 0.3207, 0.9471), (0.0151, 0.3207, 0.9471), (-0.9869, -0.1191, 0.109), (-0.9869, -0.1191, 0.109), (-0.9869, -0.1191, 0.109), (-0.9869, -0.1191, 0.109), (-0.6394, 0.7678, 0.0403), (-0.6394, 0.7678, 0.0403), (-0.6394, 0.7678, 0.0403), (-0.0171, -0.6401, -0.7681), (-0.0171, -0.6401, -0.7681), (-0.0171, -0.6401, -0.7681), (-0.0171, -0.6401, -0.7681), (-0.9929, 0.0201, 0.1175), (-0.9929, 0.0201, 0.1175), (-0.9929, 0.0201, 0.1175), (-0.9929, 0.0201, 0.1175), (0.0102, 0.0044, 0.9999), (0.0102, 0.0044, 0.9999), (0.0102, 0.0044, 0.9999), (0.0102, 0.0044, 0.9999), (0.9981, -0.0065, 0.0619), (0.9981, -0.0065, 0.0619), (0.9981, -0.0065, 0.0619), (0.9981, -0.0065, 0.0619), (0.0021, -0.4805, 0.877), (0.0021, -0.4805, 0.877), (0.0021, -0.4805, 0.877), (0.0021, -0.4805, 0.877), (0.9966, -0.0747, 0.034), (0.9966, -0.0747, 0.034), (0.9966, -0.0747, 0.034), (-0.9943, -0.0611, 0.0869), (-0.9943, -0.0611, 0.0869), (-0.9943, -0.0611, 0.0869), (-0.0095, 0.0458, -0.9989), (-0.0095, 0.0458, -0.9989), (-0.0095, 0.0458, -0.9989), (-0.0095, 0.0458, -0.9989), (-0.8275, -0.0782, -0.556), (-0.8275, -0.0782, -0.556), (-0.8275, -0.0782, -0.556), (-0.1979, 0.4039, -0.8932), (-0.1979, 0.4039, -0.8932), (-0.1979, 0.4039, -0.8932), (-0.1979, 0.4039, -0.8932), (-0.0161, -0.532, -0.8466), (-0.0161, -0.532, -0.8466), (-0.0161, -0.532, -0.8466), (-0.0161, -0.532, -0.8466), (-0.9271, -0.3538, 0.1241), (-0.9271, -0.3538, 0.1241), (-0.9271, -0.3538, 0.1241), (-0.9271, -0.3538, 0.1241), (0.9561, 0.0753, -0.2831), (0.9561, 0.0753, -0.2831), (0.9561, 0.0753, -0.2831), (-0.312, -0.19, 0.9309), (-0.312, -0.19, 0.9309), (-0.312, -0.19, 0.9309), (-0.312, -0.19, 0.9309), (-0.3769, 0.1609, -0.9122), (-0.3769, 0.1609, -0.9122), (-0.3769, 0.1609, -0.9122), (-0.3769, 0.1609, -0.9122), (-0.5231, 0.0943, -0.847), (-0.5231, 0.0943, -0.847), (-0.5231, 0.0943, -0.847), (-0.5132, -0.041, -0.8573), (-0.5132, -0.041, -0.8573), (-0.5132, -0.041, -0.8573), (-0.5085, -0.0371, -0.8603), (-0.5085, -0.0371, -0.8603), (-0.5085, -0.0371, -0.8603), (-0.9518, 0.3029, 0.0493), (-0.9518, 0.3029, 0.0493), (-0.9518, 0.3029, 0.0493), (-0.9518, 0.3029, 0.0493), (-0.3624, 0.6371, 0.6802), (-0.3624, 0.6371, 0.6802), (-0.3624, 0.6371, 0.6802), (-0.3624, 0.6371, 0.6802), (-0.9945, -0.0191, 0.1031), (-0.9945, -0.0191, 0.1031), (-0.9945, -0.0191, 0.1031), (-0.9075, 0.2131, 0.3621), (-0.9075, 0.2131, 0.3621), (-0.9075, 0.2131, 0.3621), (-0.9075, 0.2131, 0.3621), (-0.8981, -0.1241, -0.4219), (-0.8981, -0.1241, -0.4219), (-0.8981, -0.1241, -0.4219), (-0.8981, -0.1241, -0.4219), (-0.9741, 0.2051, -0.0953), (-0.9741, 0.2051, -0.0953), (-0.9741, 0.2051, -0.0953), (-0.9741, 0.2051, -0.0953), (-0.9741, 0.2051, -0.0953), (-0.3197, -0.8033, -0.5025), (-0.3197, -0.8033, -0.5025), (-0.3197, -0.8033, -0.5025), (-0.3197, -0.8033, -0.5025), (-0.889, -0.2056, 0.4091), (-0.889, -0.2056, 0.4091), (-0.889, -0.2056, 0.4091), (-0.889, -0.2056, 0.4091), (-0.2414, 0.7883, -0.566), (-0.2414, 0.7883, -0.566), (-0.2414, 0.7883, -0.566), (-0.2414, 0.7883, -0.566), (-0.9869, 0.1412, -0.0782), (-0.9869, 0.1412, -0.0782), (-0.9869, 0.1412, -0.0782), (-0.9869, 0.1412, -0.0782), (-0.206, -0.5063, 0.8374), (-0.206, -0.5063, 0.8374), (-0.206, -0.5063, 0.8374), (-0.206, -0.5063, 0.8374), (-0.1126, -0.2433, 0.9634), (-0.1126, -0.2433, 0.9634), (-0.1126, -0.2433, 0.9634), (-0.1126, -0.2433, 0.9634), (-0.2238, 0.8257, -0.5178), (-0.2238, 0.8257, -0.5178), (-0.2238, 0.8257, -0.5178), (-0.2238, 0.8257, -0.5178), (-0.7712, -0.1149, 0.6262), (-0.7712, -0.1149, 0.6262), (-0.7712, -0.1149, 0.6262), (-0.7712, -0.1149, 0.6262), (-0.9401, 0.1993, 0.2766), (-0.9401, 0.1993, 0.2766), (-0.9401, 0.1993, 0.2766), (-0.9401, 0.1993, 0.2766), (-0.0767, -0.974, 0.2133), (-0.0767, -0.974, 0.2133), (-0.0767, -0.974, 0.2133), (-0.0767, -0.974, 0.2133), (-0.9837, 0.1722, -0.0521), (-0.9837, 0.1722, -0.0521), (-0.9837, 0.1722, -0.0521), (-0.9837, 0.1722, -0.0521), (-0.2382, -0.9686, -0.0705), (-0.2382, -0.9686, -0.0705), (-0.2382, -0.9686, -0.0705), (-0.2382, -0.9686, -0.0705), (-0.133, 0.0007, -0.9911), (-0.133, 0.0007, -0.9911), (-0.133, 0.0007, -0.9911), (-0.133, 0.0007, -0.9911), (-0.0967, -0.3901, -0.9157), (-0.0967, -0.3901, -0.9157), (-0.0967, -0.3901, -0.9157), (-0.0967, -0.3901, -0.9157), (-0.3984, -0.0193, -0.917), (-0.3984, -0.0193, -0.917), (-0.3984, -0.0193, -0.917), (-0.3984, -0.0193, -0.917), (-0.9948, -0.0598, 0.0828), (-0.9948, -0.0598, 0.0828), (-0.9948, -0.0598, 0.0828), (-0.9948, -0.0598, 0.0828), (-0.2284, -0.9665, 0.1174), (-0.2284, -0.9665, 0.1174), (-0.2284, -0.9665, 0.1174), (-0.2284, -0.9665, 0.1174), (-0.9854, -0.1479, -0.0848), (-0.9854, -0.1479, -0.0848), (-0.9854, -0.1479, -0.0848), (-0.9854, -0.1479, -0.0848), (-0.9402, 0.2693, -0.2086), (-0.9402, 0.2693, -0.2086), (-0.9402, 0.2693, -0.2086), (-0.9402, 0.2693, -0.2086), (-0.3828, 0.7313, -0.5645), (-0.3828, 0.7313, -0.5645), (-0.3828, 0.7313, -0.5645), (0.9764, -0.1315, 0.1716), (0.9764, -0.1315, 0.1716), (0.9764, -0.1315, 0.1716), (0.9764, -0.1315, 0.1716), (-0.1552, 0.7848, -0.5999), (-0.1552, 0.7848, -0.5999), (-0.1552, 0.7848, -0.5999), (-0.1552, 0.7848, -0.5999), (-0.1552, 0.7848, -0.5999), (-0.3573, -0.2339, -0.9042), (-0.3573, -0.2339, -0.9042), (-0.3573, -0.2339, -0.9042), (-0.3573, -0.2339, -0.9042), (-0.2612, 0.7635, -0.5907), (-0.2612, 0.7635, -0.5907), (-0.2612, 0.7635, -0.5907), (-0.2612, 0.7635, -0.5907), (-0.2612, 0.7635, -0.5907), (-0.4129, 0.9102, 0.0315), (-0.4129, 0.9102, 0.0315), (-0.4129, 0.9102, 0.0315), (-0.4129, 0.9102, 0.0315), (0.993, 0.0464, -0.1087), (0.993, 0.0464, -0.1087), (0.993, 0.0464, -0.1087), (-0.1809, -0.9555, 0.2332), (-0.1809, -0.9555, 0.2332), (-0.1809, -0.9555, 0.2332), (-0.1809, -0.9555, 0.2332), (-0.7329, 0.3484, 0.5843), (-0.7329, 0.3484, 0.5843), (-0.7329, 0.3484, 0.5843), (-0.7329, 0.3484, 0.5843), (-0.2469, -0.9498, -0.1923), (-0.2469, -0.9498, -0.1923), (-0.2469, -0.9498, -0.1923), (-0.2469, -0.9498, -0.1923), (-0.9932, -0.1161, 0.0044), (-0.9932, -0.1161, 0.0044), (-0.9932, -0.1161, 0.0044), (-0.9932, -0.1161, 0.0044), (-0.9387, 0.3426, 0.0384), (-0.9387, 0.3426, 0.0384), (-0.9387, 0.3426, 0.0384), (-0.9387, 0.3426, 0.0384), (-0.2484, 0.8979, -0.3634), (-0.2484, 0.8979, -0.3634), (-0.2484, 0.8979, -0.3634), (-0.2484, 0.8979, -0.3634), (-0.3008, 0.9531, 0.0329), (-0.3008, 0.9531, 0.0329), (-0.3008, 0.9531, 0.0329), (-0.3008, 0.9531, 0.0329), (-0.3492, 0.8326, 0.4299), (-0.3492, 0.8326, 0.4299), (-0.3492, 0.8326, 0.4299), (-0.3492, 0.8326, 0.4299), (-0.9309, 0.2621, 0.2544), (-0.9309, 0.2621, 0.2544), (-0.9309, 0.2621, 0.2544), (-0.9309, 0.2621, 0.2544), (-0.9772, -0.1927, 0.0888), (-0.9772, -0.1927, 0.0888), (-0.9772, -0.1927, 0.0888), (-0.9772, -0.1927, 0.0888), (-0.1385, -0.9072, -0.3971), (-0.1385, -0.9072, -0.3971), (-0.1385, -0.9072, -0.3971), (-0.1385, -0.9072, -0.3971), (0, 0.9466, -0.3223), (0, 0.9466, -0.3223), (0, 0.9466, -0.3223), (0.4528, -0.5289, 0.7178), (0.4528, -0.5289, 0.7178), (0.4528, -0.5289, 0.7178), (0.7398, -0.422, 0.524), (0.7398, -0.422, 0.524), (0.7398, -0.422, 0.524), (0.7398, -0.422, 0.524), (0.6509, -0.4136, 0.6366), (0.6509, -0.4136, 0.6366), (0.6509, -0.4136, 0.6366), (0.6509, -0.4136, 0.6366), (0.4265, -0.4211, 0.8005), (0.4265, -0.4211, 0.8005), (0.4265, -0.4211, 0.8005), (0.4265, -0.4211, 0.8005), (0.9003, -0.3426, 0.2684), (0.9003, -0.3426, 0.2684), (0.9003, -0.3426, 0.2684), (0.9003, -0.3426, 0.2684), (0.5582, -0.2867, 0.7786), (0.5582, -0.2867, 0.7786), (0.5582, -0.2867, 0.7786), (0.5582, -0.2867, 0.7786), (0.7516, -0.5391, 0.3801), (0.7516, -0.5391, 0.3801), (0.7516, -0.5391, 0.3801), (0.7516, -0.5391, 0.3801), (0.5525, -0.598, 0.5807), (0.5525, -0.598, 0.5807), (0.5525, -0.598, 0.5807), (0.2322, 0.5408, 0.8084), (0.2322, 0.5408, 0.8084), (0.2322, 0.5408, 0.8084), (0.2322, 0.5408, 0.8084), (0.2322, 0.5408, 0.8084), (0.2356, 0.3475, -0.9076), (0.2356, 0.3475, -0.9076), (0.2356, 0.3475, -0.9076), (0.9361, -0.1267, 0.3282), (0.9361, -0.1267, 0.3282), (0.9361, -0.1267, 0.3282), (0.9361, -0.1267, 0.3282), (0.5792, -0.4141, 0.7021), (0.5792, -0.4141, 0.7021), (0.5792, -0.4141, 0.7021), (0.5792, -0.4141, 0.7021), (0.9621, -0.1907, 0.1951), (0.9621, -0.1907, 0.1951), (0.9621, -0.1907, 0.1951), (0.9621, -0.1907, 0.1951), (-0.4666, 0.8131, -0.3479), (-0.4666, 0.8131, -0.3479), (-0.4666, 0.8131, -0.3479), (0.6303, -0.4348, 0.6432), (0.6303, -0.4348, 0.6432), (0.6303, -0.4348, 0.6432), (0.6303, -0.4348, 0.6432), (0.793, -0.329, 0.5129), (0.793, -0.329, 0.5129), (0.793, -0.329, 0.5129), (0.793, -0.329, 0.5129), (0.0571, -0.073, -0.9957), (0.0571, -0.073, -0.9957), (0.0571, -0.073, -0.9957), (0.0571, -0.073, -0.9957), (0.111, 0.2066, -0.9721), (0.111, 0.2066, -0.9721), (0.111, 0.2066, -0.9721), (-0.8798, 0.4624, -0.1101), (-0.8798, 0.4624, -0.1101), (-0.8798, 0.4624, -0.1101), (-0.8798, 0.4624, -0.1101), (-0.7671, 0.5771, -0.2803), (-0.7671, 0.5771, -0.2803), (-0.7671, 0.5771, -0.2803), (-0.7671, 0.5771, -0.2803), (0.2693, -0.9622, -0.0419), (0.2693, -0.9622, -0.0419), (0.2693, -0.9622, -0.0419), (0.2693, -0.9622, -0.0419), (0.9129, 0.0416, 0.4061), (0.9129, 0.0416, 0.4061), (0.9129, 0.0416, 0.4061), (0.8909, -0.0501, 0.4515), (0.8909, -0.0501, 0.4515), (0.8909, -0.0501, 0.4515), (0.3014, -0.9029, -0.3065), (0.3014, -0.9029, -0.3065), (0.3014, -0.9029, -0.3065), (0.3014, -0.9029, -0.3065), (0.963, -0.2214, 0.1536), (0.963, -0.2214, 0.1536), (0.963, -0.2214, 0.1536), (0.2549, 0.3065, -0.9171), (0.2549, 0.3065, -0.9171), (0.2549, 0.3065, -0.9171), (0.2549, 0.3065, -0.9171), (0.2549, 0.3065, -0.9171), (0.9948, 0.065, 0.0789), (0.9948, 0.065, 0.0789), (0.9948, 0.065, 0.0789), (0.2055, -0.1651, 0.9646), (0.2055, -0.1651, 0.9646), (0.2055, -0.1651, 0.9646), (0.2055, -0.1651, 0.9646), (-0.4829, -0.3334, -0.8097), (-0.4829, -0.3334, -0.8097), (-0.4829, -0.3334, -0.8097), (0.2511, -0.2689, -0.9298), (0.2511, -0.2689, -0.9298), (0.2511, -0.2689, -0.9298), (0.2511, -0.2689, -0.9298), (0.9956, -0.0663, 0.066), (0.9956, -0.0663, 0.066), (0.9956, -0.0663, 0.066), (0.9956, -0.0663, 0.066), (-0.9373, -0.3183, 0.1418), (-0.9373, -0.3183, 0.1418), (-0.9373, -0.3183, 0.1418), (-0.9373, -0.3183, 0.1418), (0.7591, 0.6504, -0.0264), (0.7591, 0.6504, -0.0264), (0.7591, 0.6504, -0.0264), (-0.9421, 0.3346, -0.0225), (-0.9421, 0.3346, -0.0225), (-0.9421, 0.3346, -0.0225), (-0.9421, 0.3346, -0.0225), (0.0023, 0.8033, 0.5956), (0.0023, 0.8033, 0.5956), (0.0023, 0.8033, 0.5956), (0.0023, 0.8033, 0.5956), (0.9327, 0.3604, -0.0094), (0.9327, 0.3604, -0.0094), (0.9327, 0.3604, -0.0094), (0.9327, 0.3604, -0.0094), (-0.0007, 0.1996, -0.9799), (-0.0007, 0.1996, -0.9799), (-0.0007, 0.1996, -0.9799), (-0.0007, 0.1996, -0.9799), (-0.9981, -0.0506, -0.0365), (-0.9981, -0.0506, -0.0365), (-0.9981, -0.0506, -0.0365), (-0.9981, -0.0506, -0.0365), (-0.0015, -0.0102, 0.9999), (-0.0015, -0.0102, 0.9999), (-0.0015, -0.0102, 0.9999), (-0.0015, -0.0102, 0.9999), (0.9985, -0.0534, 0.0115), (0.9985, -0.0534, 0.0115), (0.9985, -0.0534, 0.0115), (0.9985, -0.0534, 0.0115), (0.0005, -0.0231, -0.9997), (0.0005, -0.0231, -0.9997), (0.0005, -0.0231, -0.9997), (0.0005, -0.0231, -0.9997), (0.9897, 0.1271, 0.0656), (0.9897, 0.1271, 0.0656), (0.9897, 0.1271, 0.0656), (-0.001, -0.1298, 0.9915), (-0.001, -0.1298, 0.9915), (-0.001, -0.1298, 0.9915), (-0.001, -0.1298, 0.9915), (-0.9879, 0.1532, 0.0219), (-0.9879, 0.1532, 0.0219), (-0.9879, 0.1532, 0.0219), (-0.0008, 0.0343, 0.9994), (-0.0008, 0.0343, 0.9994), (-0.0008, 0.0343, 0.9994), (-0.0008, 0.0343, 0.9994), (0.8928, 0.4359, -0.1137), (0.8928, 0.4359, -0.1137), (0.8928, 0.4359, -0.1137), (0.8928, 0.4359, -0.1137), (0.3264, -0.0267, 0.9449), (0.3264, -0.0267, 0.9449), (0.3264, -0.0267, 0.9449), (0.3264, -0.0267, 0.9449), (0.9984, 0.0245, -0.0501), (0.9984, 0.0245, -0.0501), (0.9984, 0.0245, -0.0501), (0.9984, 0.0245, -0.0501), (0.1115, -0.9704, 0.2143), (0.1115, -0.9704, 0.2143), (0.1115, -0.9704, 0.2143), (0.1115, -0.9704, 0.2143), (0.535, 0.0335, -0.8442), (0.535, 0.0335, -0.8442), (0.535, 0.0335, -0.8442), (0.535, 0.0335, -0.8442), (-0.9038, 0.4221, -0.0711), (-0.9038, 0.4221, -0.0711), (-0.9038, 0.4221, -0.0711), (-0.9038, 0.4221, -0.0711), (-0.0091, 0.8014, 0.598), (-0.0091, 0.8014, 0.598), (-0.0091, 0.8014, 0.598), (-0.0091, 0.8014, 0.598), (0.9647, 0.2599, 0.0418), (0.9647, 0.2599, 0.0418), (0.9647, 0.2599, 0.0418), (0.9647, 0.2599, 0.0418), (0.0103, 0.1949, -0.9808), (0.0103, 0.1949, -0.9808), (0.0103, 0.1949, -0.9808), (0.0103, 0.1949, -0.9808), (-0.9845, -0.1655, 0.0579), (-0.9845, -0.1655, 0.0579), (-0.9845, -0.1655, 0.0579), (-0.9845, -0.1655, 0.0579), (-0.0153, 0.3214, 0.9468), (-0.0153, 0.3214, 0.9468), (-0.0153, 0.3214, 0.9468), (-0.0153, 0.3214, 0.9468), (0.9863, -0.123, 0.1098), (0.9863, -0.123, 0.1098), (0.9863, -0.123, 0.1098), (0.9863, -0.123, 0.1098), (0.6369, 0.767, 0.0773), (0.6369, 0.767, 0.0773), (0.6369, 0.767, 0.0773), (0.0171, -0.6404, -0.7678), (0.0171, -0.6404, -0.7678), (0.0171, -0.6404, -0.7678), (0.0171, -0.6404, -0.7678), (0.9929, 0.0201, 0.1175), (0.9929, 0.0201, 0.1175), (0.9929, 0.0201, 0.1175), (0.9929, 0.0201, 0.1175), (-0.0103, 0.0044, 0.9999), (-0.0103, 0.0044, 0.9999), (-0.0103, 0.0044, 0.9999), (-0.0103, 0.0044, 0.9999), (-0.9981, -0.0065, 0.0619), (-0.9981, -0.0065, 0.0619), (-0.9981, -0.0065, 0.0619), (-0.9981, -0.0065, 0.0619), (-0.0022, -0.4805, 0.877), (-0.0022, -0.4805, 0.877), (-0.0022, -0.4805, 0.877), (-0.0022, -0.4805, 0.877), (-0.9966, -0.0747, 0.034), (-0.9966, -0.0747, 0.034), (-0.9966, -0.0747, 0.034), (0.9943, -0.0611, 0.0869), (0.9943, -0.0611, 0.0869), (0.9943, -0.0611, 0.0869), (0.0096, 0.0458, -0.9989), (0.0096, 0.0458, -0.9989), (0.0096, 0.0458, -0.9989), (0.0096, 0.0458, -0.9989), (0.8275, -0.0782, -0.556), (0.8275, -0.0782, -0.556), (0.8275, -0.0782, -0.556), (0.0162, -0.532, -0.8466), (0.0162, -0.532, -0.8466), (0.0162, -0.532, -0.8466), (0.0162, -0.532, -0.8466), (0.9253, -0.352, 0.1409), (0.9253, -0.352, 0.1409), (0.9253, -0.352, 0.1409), (0.9253, -0.352, 0.1409), (-0.9561, 0.0753, -0.2831), (-0.9561, 0.0753, -0.2831), (0.248, -0.2078, 0.9462), (0.248, -0.2078, 0.9462), (0.248, -0.2078, 0.9462), (0.248, -0.2078, 0.9462), (0.4584, 0.1855, -0.8692), (0.4584, 0.1855, -0.8692), (0.4584, 0.1855, -0.8692), (0.4584, 0.1855, -0.8692), (0.5158, 0.1525, -0.843), (0.5158, 0.1525, -0.843), (0.5158, 0.1525, -0.843), (0.5136, 0.0571, -0.8561), (0.5136, 0.0571, -0.8561), (0.5136, 0.0571, -0.8561), (0.507, 0.0624, -0.8597), (0.507, 0.0624, -0.8597), (0.507, 0.0624, -0.8597), (-0.1287, -0.7385, 0.6619), (-0.1287, -0.7385, 0.6619), (-0.1287, -0.7385, 0.6619), (-0.1287, -0.7385, 0.6619), (0.9342, 0.3268, 0.1429), (0.9342, 0.3268, 0.1429), (0.9342, 0.3268, 0.1429), (0.9342, 0.3268, 0.1429), (0.3624, 0.6371, 0.6802), (0.3624, 0.6371, 0.6802), (0.3624, 0.6371, 0.6802), (0.3624, 0.6371, 0.6802), (0.9945, -0.0191, 0.1031), (0.9945, -0.0191, 0.1031), (0.9945, -0.0191, 0.1031), (0.9075, 0.2131, 0.3621), (0.9075, 0.2131, 0.3621), (0.9075, 0.2131, 0.3621), (0.9075, 0.2131, 0.3621), (0.8981, -0.1241, -0.4219), (0.8981, -0.1241, -0.4219), (0.8981, -0.1241, -0.4219), (0.8981, -0.1241, -0.4219), (0.9741, 0.2051, -0.0953), (0.9741, 0.2051, -0.0953), (0.9741, 0.2051, -0.0953), (0.9741, 0.2051, -0.0953), (0.9741, 0.2051, -0.0953), (0.3197, -0.8033, -0.5025), (0.3197, -0.8033, -0.5025), (0.3197, -0.8033, -0.5025), (0.3197, -0.8033, -0.5025), (0.8891, -0.2055, 0.409), (0.8891, -0.2055, 0.409), (0.8891, -0.2055, 0.409), (0.8891, -0.2055, 0.409), (0.2414, 0.7883, -0.566), (0.2414, 0.7883, -0.566), (0.2414, 0.7883, -0.566), (0.2414, 0.7883, -0.566), (0.9869, 0.1412, -0.0782), (0.9869, 0.1412, -0.0782), (0.9869, 0.1412, -0.0782), (0.9869, 0.1412, -0.0782), (0.2058, -0.5063, 0.8375), (0.2058, -0.5063, 0.8375), (0.2058, -0.5063, 0.8375), (0.2058, -0.5063, 0.8375), (0.1124, -0.2434, 0.9634), (0.1124, -0.2434, 0.9634), (0.1124, -0.2434, 0.9634), (0.1124, -0.2434, 0.9634), (0.2238, 0.8257, -0.5178), (0.2238, 0.8257, -0.5178), (0.2238, 0.8257, -0.5178), (0.2238, 0.8257, -0.5178), (0.7707, -0.1149, 0.6267), (0.7707, -0.1149, 0.6267), (0.7707, -0.1149, 0.6267), (0.7707, -0.1149, 0.6267), (0.94, 0.1995, 0.2768), (0.94, 0.1995, 0.2768), (0.94, 0.1995, 0.2768), (0.94, 0.1995, 0.2768), (0.0765, -0.974, 0.2132), (0.0765, -0.974, 0.2132), (0.0765, -0.974, 0.2132), (0.0765, -0.974, 0.2132), (0.9837, 0.1722, -0.052), (0.9837, 0.1722, -0.052), (0.9837, 0.1722, -0.052), (0.9837, 0.1722, -0.052), (0.2544, -0.9657, -0.0523), (0.2544, -0.9657, -0.0523), (0.2544, -0.9657, -0.0523), (0.2544, -0.9657, -0.0523), (0.2576, 0.0138, -0.9661), (0.2576, 0.0138, -0.9661), (0.2576, 0.0138, -0.9661), (0.2576, 0.0138, -0.9661), (0.1611, -0.318, -0.9343), (0.1611, -0.318, -0.9343), (0.1611, -0.318, -0.9343), (0.1611, -0.318, -0.9343), (0.4328, 0.0413, -0.9005), (0.4328, 0.0413, -0.9005), (0.4328, 0.0413, -0.9005), (0.4328, 0.0413, -0.9005), (0.9899, -0.0282, 0.139), (0.9899, -0.0282, 0.139), (0.9899, -0.0282, 0.139), (0.9899, -0.0282, 0.139), (0.2285, -0.9664, 0.1174), (0.2285, -0.9664, 0.1174), (0.2285, -0.9664, 0.1174), (0.2285, -0.9664, 0.1174), (0.9854, -0.1479, -0.0847), (0.9854, -0.1479, -0.0847), (0.9854, -0.1479, -0.0847), (0.9854, -0.1479, -0.0847), (0.9402, 0.2693, -0.2086), (0.9402, 0.2693, -0.2086), (0.9402, 0.2693, -0.2086), (0.9402, 0.2693, -0.2086), (0.4171, 0.7455, -0.5199), (0.4171, 0.7455, -0.5199), (0.4171, 0.7455, -0.5199), (-0.987, -0.1111, 0.1162), (-0.987, -0.1111, 0.1162), (-0.987, -0.1111, 0.1162), (-0.987, -0.1111, 0.1162), (0.1553, 0.7848, -0.6), (0.1553, 0.7848, -0.6), (0.1553, 0.7848, -0.6), (0.1553, 0.7848, -0.6), (0.1553, 0.7848, -0.6), (0.3484, -0.109, -0.931), (0.3484, -0.109, -0.931), (0.3484, -0.109, -0.931), (0.3484, -0.109, -0.931), (0.3032, 0.7719, -0.5588), (0.3032, 0.7719, -0.5588), (0.3032, 0.7719, -0.5588), (0.3032, 0.7719, -0.5588), (0.3032, 0.7719, -0.5588), (0.3833, 0.9221, 0.0526), (0.3833, 0.9221, 0.0526), (0.3833, 0.9221, 0.0526), (0.3833, 0.9221, 0.0526), (-0.993, 0.0464, -0.1087), (-0.993, 0.0464, -0.1087), (-0.993, 0.0464, -0.1087), (0.1891, -0.9519, 0.2412), (0.1891, -0.9519, 0.2412), (0.1891, -0.9519, 0.2412), (0.1891, -0.9519, 0.2412), (0.863, 0.2003, 0.4638), (0.863, 0.2003, 0.4638), (0.863, 0.2003, 0.4638), (0.2517, -0.9479, -0.1954), (0.2517, -0.9479, -0.1954), (0.2517, -0.9479, -0.1954), (0.2517, -0.9479, -0.1954), (0.9937, -0.111, -0.0151), (0.9937, -0.111, -0.0151), (0.9937, -0.111, -0.0151), (0.9937, -0.111, -0.0151), (0.9391, 0.3433, 0.0164), (0.9391, 0.3433, 0.0164), (0.9391, 0.3433, 0.0164), (0.9391, 0.3433, 0.0164), (0.2485, 0.8979, -0.3634), (0.2485, 0.8979, -0.3634), (0.2485, 0.8979, -0.3634), (0.2989, 0.9539, 0.0267), (0.2989, 0.9539, 0.0267), (0.2989, 0.9539, 0.0267), (0.2989, 0.9539, 0.0267), (0.3204, 0.8481, 0.422), (0.3204, 0.8481, 0.422), (0.3204, 0.8481, 0.422), (0.3204, 0.8481, 0.422), (0.9682, 0.219, 0.1211), (0.9682, 0.219, 0.1211), (-0.0019, 0.8033, 0.5956), (0.9682, 0.219, 0.1211), (-0.0019, 0.8033, 0.5956), (0.9682, 0.219, 0.1211), (-0.0019, 0.8033, 0.5956), (0.9924, -0.1198, -0.0263), (-0.9326, 0.3608, -0.0098), (0.9924, -0.1198, -0.0263), (-0.9326, 0.3608, -0.0098), (0.9924, -0.1198, -0.0263), (-0.9561, 0.0753, -0.2831), (0.111, 0.2066, -0.9721), (-0.9326, 0.3608, -0.0098), (0.9924, -0.1198, -0.0263), (0.1302, -0.7449, 0.6543), (0.6676, -0.4929, 0.5581), (0.0017, 0.1994, -0.9799), (0.1695, -0.8937, -0.4155), (0.1302, -0.7449, 0.6543), (0.6676, -0.4929, 0.5581), (-0.9326, 0.3608, -0.0098), (0.1695, -0.8937, -0.4155), (0.1302, -0.7449, 0.6543), (0.6676, -0.4929, 0.5581), (0.0017, 0.1994, -0.9799), (0.1695, -0.8937, -0.4155), (0.2485, 0.8979, -0.3634), (0.1302, -0.7449, 0.6543), (0.6676, -0.4929, 0.5581), (0.0017, 0.1994, -0.9799), (0.1695, -0.8937, -0.4155)]
                point3f[] points = [(0.472156, 2.958288, 2.057703), (0.000005, 2.939545, 2.11872), (0.412792, 2.846144, 1.595207), (0, 2.831349, 1.5952), (0.765833, 2.051781, 2.145883), (0.748261, 2.004425, 1.741673), (0.78378, 1.917722, 2.115282), (0.784641, 1.616762, 1.815798), (0.765833, 2.051781, 2.145883), (0.472156, 2.958288, 2.057703), (0.518799, 3.046494, 2.421076), (-0.472156, 2.958327, 2.057738), (-0.412792, 2.846094, 1.595264), (0.000005, 2.939545, 2.11872), (0, 2.831349, 1.5952), (-0.765833, 2.051948, 2.145854), (-0.783781, 1.917887, 2.115269), (-0.748272, 2.004592, 1.741651), (-0.784642, 1.61693, 1.815768), (-0.472156, 2.958327, 2.057738), (-0.765833, 2.051948, 2.145854), (-0.518799, 3.046601, 2.421094), (0.565554, 5.82135, 2.470427), (0.740841, 4.740146, 2.647091), (0.726358, 5.569306, 2.113092), (0.94494, 4.191893, 2.339496), (0.740841, 4.740146, 2.647091), (0.461785, 3.48514, 2.714613), (0.94494, 4.191893, 2.339496), (0.518799, 3.046494, 2.421076), (0.200429, 5.904698, 2.470427), (0.565554, 5.82135, 2.470427), (0.220871, 5.659468, 2.113092), (0.726358, 5.569306, 2.113092), (0.461785, 3.48514, 2.714613), (-0.000003, 3.416173, 2.769023), (0.518799, 3.046494, 2.421076), (0.00001, 3.024603, 2.530051), (-0.565554, 5.82135, 2.470427), (-0.726358, 5.569306, 2.113092), (-0.740579, 4.740324, 2.646686), (-0.94494, 4.191981, 2.339304), (-0.740579, 4.740324, 2.646686), (-0.94494, 4.191981, 2.339304), (-0.461807, 3.485226, 2.714591), (-0.518799, 3.046601, 2.421094), (-0.200429, 5.904698, 2.470427), (-0.220871, 5.659468, 2.113092), (-0.565554, 5.82135, 2.470427), (-0.726358, 5.569306, 2.113092), (-0.461807, 3.485226, 2.714591), (-0.518799, 3.046601, 2.421094), (-0.000003, 3.416173, 2.769023), (0.00001, 3.024603, 2.530051), (0.663202, 3.167964, -2.798037), (0.68385, 2.514457, -3.041557), (0.901544, 2.517526, -3.039335), (1.257035, 3.19719, -2.605842), (-1.076492, 1.615966, 1.815925), (-1.101126, 2.003445, 1.741852), (-0.784642, 1.61693, 1.815768), (-0.748272, 2.004592, 1.741651), (-1.032739, 1.921573, 2.115415), (-0.783781, 1.917887, 2.115269), (-1.017231, 2.060134, 2.146021), (-0.765833, 2.051948, 2.145854), (-0.801367, 1.680801, 2.123498), (-0.783781, 1.917887, 2.115269), (-0.784642, 1.61693, 1.815768), (-1.076492, 1.615966, 1.815925), (-1.032739, 1.921573, 2.115415), (-1.101126, 2.003445, 1.741852), (-1.017231, 2.060134, 2.146021), (1.032739, 1.921405, 2.115457), (1.017231, 2.059967, 2.14605), (0.78378, 1.917722, 2.115282), (0.765833, 2.051781, 2.145883), (0.78378, 1.917722, 2.115282), (0.801366, 1.680634, 2.123528), (0.784641, 1.616762, 1.815798), (1.076492, 1.615797, 1.815956), (1.101125, 2.00328, 1.741883), (1.032739, 1.921405, 2.115457), (1.017231, 2.059967, 2.14605), (1.076492, 1.615797, 1.815956), (0.784641, 1.616762, 1.815798), (1.101125, 2.00328, 1.741883), (0.748261, 2.004425, 1.741673), (1.103535, 4.031642, -1.343392), (0.804636, 4.014406, -1.25142), (0.861954, 4.882729, -1.733177), (-0.965761, 2.076368, -3.034902), (-0.955986, 2.352818, -2.935762), (-0.640357, 2.071783, -3.038216), (-0.640322, 2.348375, -2.938976), (-0.640322, 2.348375, -2.938976), (-0.640357, 2.071783, -3.038216), (-0.670892, 2.044333, -2.710744), (-0.917376, 2.047796, -2.708247), (-0.965761, 2.076368, -3.034902), (-0.955986, 2.352818, -2.935762), (0.640347, 2.072508, -3.037705), (0.965751, 2.077073, -3.034375), (0.955976, 2.353541, -2.935238), (0.640312, 2.349083, -2.938465), (0.640347, 2.072508, -3.037705), (0.640312, 2.349083, -2.938465), (0.670884, 2.045031, -2.710256), (0.965751, 2.077073, -3.034375), (0.917366, 2.048527, -2.707702), (0.955976, 2.353541, -2.935238), (-0.106887, 5.249205, 1.532324), (-0.56009, 6.795597, 3.890247), (-0.584036, 6.882778, 3.939379), (-0.511844, 6.803778, 3.926713), (-0.423487, 6.759416, 4.026581), (-0.434638, 6.750272, 4.003476), (-0.509943, 6.856047, 3.982349), (-0.520357, 6.895481, 3.999405), (-0.503437, 6.669787, 3.860708), (-0.511988, 6.655884, 3.842929), (-0.420654, 6.55863, 3.873129), (-0.405498, 6.512895, 3.858908), (-0.56009, 6.795597, 3.890247), (-0.503437, 6.669787, 3.860708), (-0.511844, 6.803778, 3.926713), (-0.454903, 6.7293, 3.911417), (-0.434638, 6.750272, 4.003476), (-0.454903, 6.7293, 3.911417), (-0.404445, 6.660072, 3.992303), (-0.420234, 6.638213, 3.908727), (-0.420654, 6.55863, 3.873129), (-0.420234, 6.638213, 3.908727), (-0.503437, 6.669787, 3.860708), (-0.454903, 6.7293, 3.911417), (-0.454903, 6.7293, 3.911417), (-0.434638, 6.750272, 4.003476), (-0.511844, 6.803778, 3.926713), (-0.509943, 6.856047, 3.982349), (-0.511844, 6.803778, 3.926713), (-0.584036, 6.882778, 3.939379), (-0.509943, 6.856047, 3.982349), (-0.384648, 6.643385, 4.012209), (-0.419349, 6.611207, 3.930942), (0, 6.721209, 3.972487), (0, 5.892326, 4.585902), (-0.292065, 5.777282, 4.576021), (-0.555598, 6.870384, 3.893494), (-0.620788, 6.923784, 3.93086), (-0.584864, 6.817721, 3.880928), (-0.420234, 6.638213, 3.908727), (-0.419349, 6.611207, 3.930942), (-0.404445, 6.660072, 3.992303), (-0.384648, 6.643385, 4.012209), (-0.509943, 6.856047, 3.982349), (-0.520357, 6.895481, 3.999405), (-0.584036, 6.882778, 3.939379), (-0.620788, 6.923784, 3.93086), (-0.405498, 6.512895, 3.858908), (-0.420654, 6.55863, 3.873129), (-0.420234, 6.638213, 3.908727), (-0.419349, 6.611207, 3.930942), (-0.520357, 6.895481, 3.999405), (-0.620788, 6.923784, 3.93086), (-0.555598, 6.870384, 3.893494), (-0.584864, 6.817721, 3.880928), (-0.56009, 6.795597, 3.890247), (-0.503437, 6.669787, 3.860708), (-0.511988, 6.655884, 3.842929), (-0.404445, 6.660072, 3.992303), (-0.384648, 6.643385, 4.012209), (-0.434638, 6.750272, 4.003476), (-0.423487, 6.759416, 4.026581), (-0.44866, 6.725563, 3.845793), (-0.372346, 6.617138, 3.837767), (-0.511988, 6.655884, 3.842929), (-0.405498, 6.512895, 3.858908), (-0.555598, 6.870384, 3.893494), (-0.44866, 6.725563, 3.845793), (-0.584864, 6.817721, 3.880928), (-0.511988, 6.655884, 3.842929), (-0.584036, 6.882778, 3.939379), (-0.620788, 6.923784, 3.93086), (-0.56009, 6.795597, 3.890247), (-0.584864, 6.817721, 3.880928), (-0.423487, 6.759416, 4.026581), (-0.384648, 6.643385, 4.012209), (-0.44866, 6.725563, 3.845793), (-0.372346, 6.617138, 3.837767), (-0.423487, 6.759416, 4.026581), (-0.520357, 6.895481, 3.999405), (-0.555598, 6.870384, 3.893494), (-0.44866, 6.725563, 3.845793), (-0.551208, 5.432856, 3.909907), (-0.383168, 5.380691, 4.235658), (0, 5.264837, 4.226188), (0, 5.289324, 3.870951), (-0.269545, 5.198797, 4.685864), (-0.565847, 5.970677, 3.940696), (-0.292065, 5.777282, 4.576021), (-0.565847, 5.970677, 3.940696), (-0.383168, 5.380691, 4.235658), (-0.551208, 5.432856, 3.909907), (-0.383168, 5.380691, 4.235658), (-0.269545, 5.198797, 4.685864), (0, 5.095792, 4.698215), (0, 5.264837, 4.226188), (-0.565847, 5.970677, 3.940696), (-0.269545, 5.198797, 4.685864), (-0.383168, 5.380691, 4.235658), (-0.668264, 4.133723, -2.931146), (-0.684157, 4.648018, -2.819322), (0.028909, 4.346511, -3.023402), (0.017532, 4.569221, -2.921826), (-0.328083, 4.780703, -2.793875), (-1.047886, 1.679986, 2.123631), (-1.076492, 1.615966, 1.815925), (-1.032739, 1.921573, 2.115415), (-0.765833, 2.051948, 2.145854), (-1.017231, 2.060134, 2.146021), (-1.139158, 3.071151, 2.240726), (-0.518799, 3.046601, 2.421094), (-0.748272, 2.004592, 1.741651), (-0.412792, 2.846094, 1.595264), (-0.735854, 2.870989, 1.392311), (-0.748272, 2.004592, 1.741651), (-1.101126, 2.003445, 1.741852), (-0.735854, 2.870989, 1.392311), (-1.111192, 2.906826, 1.578738), (-1.017231, 2.060134, 2.146021), (-1.139158, 3.071151, 2.240726), (-1.101126, 2.003445, 1.741852), (-1.111192, 2.906826, 1.578738), (-0.412792, 2.846094, 1.595264), (-0.748272, 2.004592, 1.741651), (-0.765833, 2.051948, 2.145854), (-0.472156, 2.958327, 2.057738), (-0.754574, 5.050931, -2.249649), (-0.962992, 4.855253, -1.828536), (-1.102137, 4.536067, -2.680937), (-0.778768, 0.277971, 1.812381), (-0.821936, 0.432557, 1.843143), (-0.764672, 0.301358, 2.284487), (-0.834033, 0.452128, 2.080853), (-0.834033, 0.452128, 2.080853), (-0.821936, 0.432557, 1.843143), (-0.821936, 0.432557, 1.843143), (-0.784642, 1.61693, 1.815768), (-0.834033, 0.452128, 2.080853), (-0.762174, 1.432773, 2.090978), (-0.834033, 0.452128, 2.080853), (-0.762174, 1.432773, 2.090978), (-1.011035, 0.451571, 2.081105), (-1.081916, 1.431716, 2.09116), (-1.081916, 1.431716, 2.09116), (-1.011035, 0.451571, 2.081105), (-1.031338, 0.431865, 1.843256), (-1.076492, 1.615966, 1.815925), (-1.031338, 0.431865, 1.843256), (-1.076492, 1.615966, 1.815925), (-0.821936, 0.432557, 1.843143), (-0.784642, 1.61693, 1.815768), (-1.047886, 1.679986, 2.123631), (-1.081916, 1.431716, 2.09116), (-1.076492, 1.615966, 1.815925), (-0.801367, 1.680801, 2.123498), (-0.762174, 1.432773, 2.090978), (-1.081916, 1.431716, 2.09116), (-1.047886, 1.679986, 2.123631), (-0.784642, 1.61693, 1.815768), (-0.762174, 1.432773, 2.090978), (-0.801367, 1.680801, 2.123498), (-1.047886, 1.679986, 2.123631), (-0.801367, 1.680801, 2.123498), (-1.032739, 1.921573, 2.115415), (-0.783781, 1.917887, 2.115269), (-0.94494, 4.191981, 2.339304), (-1.120373, 3.876736, 2.236567), (-1.094024, 3.707356, 1.652297), (-0.970338, 4.00039, 1.53278), (-1.139158, 3.071151, 2.240726), (-0.518799, 3.046601, 2.421094), (-1.120373, 3.876736, 2.236567), (-0.94494, 4.191981, 2.339304), (-1.120373, 3.876736, 2.236567), (-1.094024, 3.707356, 1.652297), (-1.139158, 3.071151, 2.240726), (-1.111192, 2.906826, 1.578738), (-0.735854, 2.870989, 1.392311), (-0.412792, 2.846094, 1.595264), (0, 2.831349, 1.5952), (0.00001, 2.673973, 1.030494), (-0.970338, 4.00039, 1.53278), (-1.094024, 3.707356, 1.652297), (-1.111192, 2.906826, 1.578738), (-0.735854, 2.870989, 1.392311), (-0.67047, 0.276609, -2.903809), (-0.719799, 0.431709, -2.872563), (-0.638868, 0.299023, -2.393821), (-0.728572, 0.451094, -2.591417), (-0.638868, 0.299023, -2.393821), (-0.728572, 0.451094, -2.591417), (-0.942595, 0.301743, -2.386841), (-0.903598, 0.453526, -2.589168), (-0.903598, 0.453526, -2.589168), (-0.942595, 0.301743, -2.386841), (-0.95061, 0.278726, -2.897216), (-0.928185, 0.434588, -2.870207), (-0.928185, 0.434588, -2.870207), (-0.95061, 0.278726, -2.897216), (-0.67047, 0.276609, -2.903809), (-0.719799, 0.431709, -2.872563), (-0.655385, 0.704068, -3.100851), (-0.719799, 0.431709, -2.872563), (-0.728572, 0.451094, -2.591417), (-0.669369, 0.785371, -2.705284), (-0.669369, 0.785371, -2.705284), (-0.728572, 0.451094, -2.591417), (-0.903598, 0.453526, -2.589168), (-0.952456, 0.789358, -2.702399), (-0.903598, 0.453526, -2.589168), (-0.952456, 0.789358, -2.702399), (-0.928185, 0.434588, -2.870207), (-0.990528, 0.708787, -3.097436), (-0.754574, 5.050931, -2.249649), (-0.786376, 4.985678, -1.510914), (-0.962992, 4.855253, -1.828536), (-0.928185, 0.434588, -2.870207), (-0.990528, 0.708787, -3.097436), (-0.719799, 0.431709, -2.872563), (-0.655385, 0.704068, -3.100851), (-0.952456, 0.789358, -2.702399), (-0.917376, 2.047796, -2.708247), (-0.990528, 0.708787, -3.097436), (-0.965761, 2.076368, -3.034902), (-0.670892, 2.044333, -2.710744), (-0.669369, 0.785371, -2.705284), (-0.952456, 0.789358, -2.702399), (-0.917376, 2.047796, -2.708247), (-0.640357, 2.071783, -3.038216), (-0.655385, 0.704068, -3.100851), (-0.669369, 0.785371, -2.705284), (-0.670892, 2.044333, -2.710744), (-0.654655, 2.332657, -2.552837), (-0.670892, 2.044333, -2.710744), (-0.917376, 2.047796, -2.708247), (-0.921289, 2.336415, -2.550121), (-0.640322, 2.348375, -2.938976), (-0.670892, 2.044333, -2.710744), (-0.654655, 2.332657, -2.552837), (-0.921289, 2.336415, -2.550121), (-0.917376, 2.047796, -2.708247), (-0.955986, 2.352818, -2.935762), (-0.965761, 2.076368, -3.034902), (-0.990528, 0.708787, -3.097436), (-0.655385, 0.704068, -3.100851), (-0.640357, 2.071783, -3.038216), (-0.955986, 2.352818, -2.935762), (-0.901554, 2.516807, -3.039858), (-1.257044, 3.196474, -2.606359), (-0.901554, 2.516807, -3.039858), (-1.257044, 3.196474, -2.606359), (-0.683861, 2.513741, -3.042075), (-0.663212, 3.167248, -2.798556), (-0.901554, 2.516807, -3.039858), (-0.683861, 2.513741, -3.042075), (-0.955986, 2.352818, -2.935762), (-0.640322, 2.348375, -2.938976), (-0.921289, 2.336415, -2.550121), (-1.14524, 3.346195, -1.517343), (-0.955986, 2.352818, -2.935762), (-1.257044, 3.196474, -2.606359), (-0.663212, 3.167248, -2.798556), (-0.683861, 2.513741, -3.042075), (-0.640322, 2.348375, -2.938976), (-1.14524, 3.346195, -1.517343), (-0.774263, 3.295676, -1.451246), (-1.209302, 3.999532, -1.453392), (-0.974392, 3.99225, -1.328231), (-1.102137, 4.536067, -2.680937), (-0.684157, 4.648018, -2.819322), (-1.016515, 4.04335, -2.788653), (-0.668264, 4.133723, -2.931146), (-1.016515, 4.04335, -2.788653), (-1.102137, 4.536067, -2.680937), (-1.277271, 3.998559, -2.632589), (-1.021198, 3.589544, -2.766313), (-1.277271, 3.998559, -2.632589), (-1.257044, 3.196474, -2.606359), (-1.016515, 4.04335, -2.788653), (-1.277271, 3.998559, -2.632589), (-1.021198, 3.589544, -2.766313), (-1.277271, 3.998559, -2.632589), (-1.102137, 4.536067, -2.680937), (-0.962992, 4.855253, -1.828536), (-1.209302, 3.999532, -1.453392), (0, 5.437111, 5.050254), (0, 5.892326, 4.585902), (-0.241748, 5.334914, 4.979215), (-0.292065, 5.777282, 4.576021), (-0.292065, 5.777282, 4.576021), (-0.241748, 5.334914, 4.979215), (-0.269545, 5.198797, 4.685864), (-0.419349, 6.611207, 3.930942), (-0.405498, 6.512895, 3.858908), (-0.292065, 5.777282, 4.576021), (-0.565847, 5.970677, 3.940696), (-0.565847, 5.970677, 3.940696), (-0.467789, 6.035401, 3.555036), (-0.551208, 5.432856, 3.909907), (-0.336321, 5.620806, 3.555036), (-0.405498, 6.512895, 3.858908), (-0.372346, 6.617138, 3.837767), (-0.565847, 5.970677, 3.940696), (-0.467789, 6.035401, 3.555036), (-0.395341, 6.606164, 3.555036), (-0.336321, 5.620806, 3.555036), (-0.551208, 5.432856, 3.909907), (0, 5.289324, 3.870951), (0, 5.435465, 3.555036), (-0.467789, 6.035401, 3.555036), (-0.536218, 5.288834, 2.953779), (-0.336321, 5.620806, 3.555036), (-0.40475, 4.800022, 3.071253), (-0.163367, 6.673668, 3.560834), (-0.179987, 6.149928, 2.827763), (-0.395341, 6.606164, 3.555036), (-0.40475, 6.073393, 2.827763), (-0.395341, 6.606164, 3.555036), (-0.40475, 6.073393, 2.827763), (-0.467789, 6.035401, 3.555036), (-0.536218, 5.288834, 2.953779), (-0.336321, 5.620806, 3.555036), (-0.40475, 4.800022, 3.071253), (0, 5.435465, 3.555036), (0, 4.683845, 3.071295), (-0.40475, 4.800022, 3.071253), (-0.461807, 3.485226, 2.714591), (0, 4.683845, 3.071295), (-0.000003, 3.416173, 2.769023), (-0.179987, 6.149928, 2.827763), (-0.200429, 5.904698, 2.470427), (-0.40475, 6.073393, 2.827763), (-0.565554, 5.82135, 2.470427), (-0.740579, 4.740324, 2.646686), (-0.536218, 5.288834, 2.953779), (-0.40475, 4.800022, 3.071253), (-0.461807, 3.485226, 2.714591), (-0.40475, 6.073393, 2.827763), (-0.565554, 5.82135, 2.470427), (-0.536218, 5.288834, 2.953779), (-0.740579, 4.740324, 2.646686), (-0.518799, 3.046601, 2.421094), (-0.472156, 2.958327, 2.057738), (0.00001, 3.024603, 2.530051), (0.000005, 2.939545, 2.11872), (-0.726358, 5.569306, 2.113092), (-0.741199, 5.111314, 1.532327), (-0.94494, 4.191981, 2.339304), (-0.970338, 4.00039, 1.53278), (-0.663212, 3.167248, -2.798556), (0.038311, 3.001347, -2.772704), (-0.6013, 3.120766, -2.252668), (0, 2.9619, -2.218464), (-0.665356, 3.546742, -2.93076), (-0.668264, 4.133723, -2.931146), (0.045357, 3.528689, -3.027341), (0.028909, 4.346511, -3.023402), (-0.665356, 3.546742, -2.93076), (-0.663212, 3.167248, -2.798556), (0.038311, 3.001347, -2.772704), (0.045357, 3.528689, -3.027341), (-0.668264, 4.133723, -2.931146), (-1.016515, 4.04335, -2.788653), (-1.021198, 3.589544, -2.766313), (-0.665356, 3.546742, -2.93076), (-1.257044, 3.196474, -2.606359), (-1.277271, 3.998559, -2.632589), (-1.209302, 3.999532, -1.453392), (-1.14524, 3.346195, -1.517343), (-0.695997, 2.772393, 0.486396), (-0.735854, 2.870989, 1.392311), (0.00001, 2.673973, 1.030494), (0, 2.587026, 0.486316), (-0.970338, 4.00039, 1.53278), (-0.827468, 4.000218, 0.486572), (-0.735854, 2.870989, 1.392311), (-0.695997, 2.772393, 0.486396), (-0.535677, 4.707325, 0.486572), (-0.741199, 5.111314, 1.532327), (-0.970338, 4.00039, 1.53278), (-0.827468, 4.000218, 0.486572), (-0.754574, 5.050931, -2.249649), (-1.102137, 4.536067, -2.680937), (-0.684157, 4.648018, -2.819322), (-0.6013, 3.120766, -2.252668), (-0.640322, 2.348375, -2.938976), (-0.654655, 2.332657, -2.552837), (-0.774263, 3.295676, -1.451246), (-0.220871, 5.659468, 2.113092), (-0.222469, 5.605947, 2.045192), (-0.726358, 5.569306, 2.113092), (-0.741199, 5.111314, 1.532327), (-0.106887, 5.249205, 1.532324), (-1.021198, 3.589544, -2.766313), (-0.665356, 3.546742, -2.93076), (-1.257044, 3.196474, -2.606359), (-0.663212, 3.167248, -2.798556), (-0.020498, 5.098383, -2.517808), (-0.328083, 4.780703, -2.793875), (-0.042504, 5.346962, -2.19981), (-0.754574, 5.050931, -2.249649), (-0.684157, 4.648018, -2.819322), (-0.754574, 5.050931, -2.249649), (-0.786376, 4.985678, -1.510914), (-0.042504, 5.346962, -2.19981), (-0.053741, 5.34179, -1.465466), (-0.6013, 3.120766, -2.252668), (-0.663212, 3.167248, -2.798556), (-0.640322, 2.348375, -2.938976), (0, 2.9619, -2.218464), (-0.007988, 3.220451, -1.383917), (-0.6013, 3.120766, -2.252668), (-0.774263, 3.295676, -1.451246), (-0.974392, 3.99225, -1.328231), (-1.209302, 3.999532, -1.453392), (-0.962992, 4.855253, -1.828536), (-0.786376, 4.985678, -1.510914), (-0.000503, 2.81722, -0.628126), (-0.71541, 2.99953, -0.632496), (-0.695997, 2.772393, 0.486396), (0, 2.587026, 0.486316), (-0.844163, 3.995448, -0.702311), (-0.71541, 2.99953, -0.632496), (-0.827468, 4.000218, 0.486572), (-0.695997, 2.772393, 0.486396), (-0.844163, 3.995448, -0.702311), (-0.60673, 4.744592, -0.757947), (-0.535677, 4.707325, 0.486572), (-0.827468, 4.000218, 0.486572), (-0.106887, 5.249205, 1.532324), (0, 4.893158, 0.486572), (-0.741199, 5.111314, 1.532327), (-0.535677, 4.707325, 0.486572), (-0.014739, 4.914258, -0.745708), (-0.60673, 4.744592, -0.757947), (0, 4.893158, 0.486572), (-0.535677, 4.707325, 0.486572), (-0.786376, 4.985678, -1.510914), (-0.053741, 5.34179, -1.465466), (-0.014739, 4.914258, -0.745708), (-0.60673, 4.744592, -0.757947), (-0.974392, 3.99225, -1.328231), (-0.786376, 4.985678, -1.510914), (-0.60673, 4.744592, -0.757947), (-0.844163, 3.995448, -0.702311), (-0.774263, 3.295676, -1.451246), (-0.974392, 3.99225, -1.328231), (-0.844163, 3.995448, -0.702311), (-0.71541, 2.99953, -0.632496), (-0.007988, 3.220451, -1.383917), (-0.774263, 3.295676, -1.451246), (-0.71541, 2.99953, -0.632496), (-0.000503, 2.81722, -0.628126), (0, 5.249205, 1.532324), (0, 4.893158, 0.486572), (0.106887, 5.249205, 1.532324), (0.584036, 6.882778, 3.939379), (0.56009, 6.795597, 3.890247), (0.511844, 6.803778, 3.926713), (0.509943, 6.856047, 3.982349), (0.434638, 6.750272, 4.003476), (0.423487, 6.759416, 4.026581), (0.520357, 6.895481, 3.999405), (0.503437, 6.669787, 3.860708), (0.420654, 6.55863, 3.873129), (0.511988, 6.655884, 3.842929), (0.405499, 6.512895, 3.858908), (0.56009, 6.795597, 3.890247), (0.511844, 6.803778, 3.926713), (0.503437, 6.669787, 3.860708), (0.454903, 6.7293, 3.911417), (0.434638, 6.750272, 4.003476), (0.404445, 6.660072, 3.992303), (0.454903, 6.7293, 3.911417), (0.420234, 6.638213, 3.908727), (0.420654, 6.55863, 3.873129), (0.503437, 6.669787, 3.860708), (0.420234, 6.638213, 3.908727), (0.454903, 6.7293, 3.911417), (0.454903, 6.7293, 3.911417), (0.511844, 6.803778, 3.926713), (0.434638, 6.750272, 4.003476), (0.509943, 6.856047, 3.982349), (0.584036, 6.882778, 3.939379), (0.511844, 6.803778, 3.926713), (0.509943, 6.856047, 3.982349), (0.419349, 6.611207, 3.930942), (0.384648, 6.643385, 4.012209), (0.292065, 5.777282, 4.576022), (0, 5.892326, 4.585902), (0, 6.721209, 3.972487), (0.620788, 6.923784, 3.93086), (0.555598, 6.870384, 3.893494), (0.584864, 6.817721, 3.880928), (0.420234, 6.638213, 3.908727), (0.404445, 6.660072, 3.992303), (0.419349, 6.611207, 3.930942), (0.384648, 6.643385, 4.012209), (0.509943, 6.856047, 3.982349), (0.584036, 6.882778, 3.939379), (0.520357, 6.895481, 3.999405), (0.620788, 6.923784, 3.93086), (0.420234, 6.638213, 3.908727), (0.420654, 6.55863, 3.873129), (0.405499, 6.512895, 3.858908), (0.419349, 6.611207, 3.930942), (0.620788, 6.923784, 3.93086), (0.520357, 6.895481, 3.999405), (0.555598, 6.870384, 3.893494), (0.503437, 6.669787, 3.860708), (0.56009, 6.795597, 3.890247), (0.584864, 6.817721, 3.880928), (0.511988, 6.655884, 3.842929), (0.404445, 6.660072, 3.992303), (0.434638, 6.750272, 4.003476), (0.384648, 6.643385, 4.012209), (0.423487, 6.759416, 4.026581), (0.44866, 6.725563, 3.845793), (0.511988, 6.655884, 3.842929), (0.372346, 6.617138, 3.837767), (0.405499, 6.512895, 3.858908), (0.555598, 6.870384, 3.893494), (0.584864, 6.817721, 3.880928), (0.44866, 6.725563, 3.845793), (0.423487, 6.759416, 4.026581), (0.44866, 6.725563, 3.845793), (0.384648, 6.643385, 4.012209), (0.372346, 6.617138, 3.837767), (0.555598, 6.870384, 3.893494), (0.520357, 6.895481, 3.999405), (0.423487, 6.759416, 4.026581), (0.44866, 6.725563, 3.845793), (0, 5.264837, 4.226188), (0.383168, 5.380691, 4.235658), (0.551208, 5.432856, 3.909907), (0, 5.289324, 3.870951), (0.565847, 5.970677, 3.940696), (0.269545, 5.198797, 4.685863), (0.292065, 5.777282, 4.576022), (0.383168, 5.380691, 4.235658), (0.565847, 5.970677, 3.940696), (0.551208, 5.432856, 3.909907), (0, 5.095792, 4.698215), (0.269545, 5.198797, 4.685863), (0.383168, 5.380691, 4.235658), (0, 5.264837, 4.226188), (0.269545, 5.198797, 4.685863), (0.565847, 5.970677, 3.940696), (0.383168, 5.380691, 4.235658), (0.694325, 4.673957, -2.729339), (0.713388, 4.160544, -2.840164), (0.333837, 4.793797, -2.748441), (0.017532, 4.569221, -2.921826), (0.028909, 4.346511, -3.023402), (1.076492, 1.615797, 1.815956), (1.047885, 1.679818, 2.123661), (1.032739, 1.921405, 2.115457), (1.139165, 3.071006, 2.240746), (1.017231, 2.059967, 2.14605), (0.765833, 2.051781, 2.145883), (0.518799, 3.046494, 2.421076), (0.412792, 2.846144, 1.595207), (0.748261, 2.004425, 1.741673), (0.735854, 2.871091, 1.392252), (0.748261, 2.004425, 1.741673), (0.735854, 2.871091, 1.392252), (1.101125, 2.00328, 1.741883), (1.111199, 2.906693, 1.578754), (1.017231, 2.059967, 2.14605), (1.101125, 2.00328, 1.741883), (1.139165, 3.071006, 2.240746), (1.111199, 2.906693, 1.578754), (0.765833, 2.051781, 2.145883), (0.748261, 2.004425, 1.741673), (0.412792, 2.846144, 1.595207), (0.472156, 2.958288, 2.057703), (0.861954, 4.882729, -1.733177), (0.681349, 5.076027, -2.163273), (1.09833, 4.573714, -2.548998), (0.778547, 0.277854, 1.812116), (0.76484, 0.301351, 2.284708), (0.821935, 0.43239, 1.843172), (0.833973, 0.45196, 2.080805), (1.086315, 0.30091, 2.28352), (0.76484, 0.301351, 2.284708), (0.833973, 0.45196, 2.080805), (1.011203, 0.451433, 2.081345), (1.075878, 0.277011, 1.811352), (1.086315, 0.30091, 2.28352), (1.011203, 0.451433, 2.081345), (1.031337, 0.431698, 1.843285), (0.778547, 0.277854, 1.812116), (1.075878, 0.277011, 1.811352), (1.031337, 0.431698, 1.843285), (0.821935, 0.43239, 1.843172), (0.821935, 0.43239, 1.843172), (0.833973, 0.45196, 2.080805), (0.784641, 1.616762, 1.815798), (0.762173, 1.432606, 2.091008), (0.833973, 0.45196, 2.080805), (1.011203, 0.451433, 2.081345), (0.762173, 1.432606, 2.091008), (1.081916, 1.431548, 2.091201), (1.031337, 0.431698, 1.843285), (1.011203, 0.451433, 2.081345), (1.081916, 1.431548, 2.091201), (1.076492, 1.615797, 1.815956), (0.821935, 0.43239, 1.843172), (1.031337, 0.431698, 1.843285), (1.076492, 1.615797, 1.815956), (0.784641, 1.616762, 1.815798), (1.081916, 1.431548, 2.091201), (1.047885, 1.679818, 2.123661), (1.076492, 1.615797, 1.815956), (1.081916, 1.431548, 2.091201), (0.762173, 1.432606, 2.091008), (0.801366, 1.680634, 2.123528), (1.047885, 1.679818, 2.123661), (0.762173, 1.432606, 2.091008), (0.784641, 1.616762, 1.815798), (0.801366, 1.680634, 2.123528), (1.047885, 1.679818, 2.123661), (1.032739, 1.921405, 2.115457), (0.801366, 1.680634, 2.123528), (0.78378, 1.917722, 2.115282), (1.094024, 3.707404, 1.65243), (1.120373, 3.876651, 2.236731), (0.94494, 4.191893, 2.339496), (0.970338, 4.000442, 1.532918), (1.139165, 3.071006, 2.240746), (1.120373, 3.876651, 2.236731), (0.518799, 3.046494, 2.421076), (0.94494, 4.191893, 2.339496), (1.120373, 3.876651, 2.236731), (1.139165, 3.071006, 2.240746), (1.094024, 3.707404, 1.65243), (1.111199, 2.906693, 1.578754), (0, 2.831349, 1.5952), (0.412792, 2.846144, 1.595207), (0.735854, 2.871091, 1.392252), (0.00001, 2.673973, 1.030494), (1.111199, 2.906693, 1.578754), (1.094024, 3.707404, 1.65243), (0.970338, 4.000442, 1.532918), (0.735854, 2.871091, 1.392252), (0.670925, 0.277216, -2.903501), (0.61944, 0.30091, -2.387249), (0.718977, 0.432407, -2.871831), (0.727862, 0.451817, -2.590704), (0.941812, 0.301884, -2.38653), (0.61944, 0.30091, -2.387249), (0.727862, 0.451817, -2.590704), (0.902071, 0.454139, -2.588316), (0.962419, 0.280163, -2.899527), (0.941812, 0.301884, -2.38653), (0.902071, 0.454139, -2.588316), (0.926829, 0.435172, -2.86941), (0.670925, 0.277216, -2.903501), (0.962419, 0.280163, -2.899527), (0.926829, 0.435172, -2.86941), (0.718977, 0.432407, -2.871831), (0.727862, 0.451817, -2.590704), (0.718977, 0.432407, -2.871831), (0.655375, 0.704783, -3.100331), (0.66936, 0.786087, -2.704764), (0.902071, 0.454139, -2.588316), (0.727862, 0.451817, -2.590704), (0.66936, 0.786087, -2.704764), (0.952448, 0.790073, -2.701881), (0.902071, 0.454139, -2.588316), (0.926829, 0.435172, -2.86941), (0.952448, 0.790073, -2.701881), (0.990518, 0.709502, -3.096918), (0.683856, 5.002444, -1.453462), (0.681349, 5.076027, -2.163273), (0.861954, 4.882729, -1.733177), (0.926829, 0.435172, -2.86941), (0.718977, 0.432407, -2.871831), (0.990518, 0.709502, -3.096918), (0.655375, 0.704783, -3.100331), (0.952448, 0.790073, -2.701881), (0.990518, 0.709502, -3.096918), (0.917366, 2.048527, -2.707702), (0.965751, 2.077073, -3.034375), (0.66936, 0.786087, -2.704764), (0.952448, 0.790073, -2.701881), (0.670884, 2.045031, -2.710256), (0.917366, 2.048527, -2.707702), (0.66936, 0.786087, -2.704764), (0.655375, 0.704783, -3.100331), (0.640347, 2.072508, -3.037705), (0.670884, 2.045031, -2.710256), (0.670884, 2.045031, -2.710256), (0.917366, 2.048527, -2.707702), (0.654646, 2.333379, -2.55232), (0.92128, 2.337122, -2.549602), (0.670884, 2.045031, -2.710256), (0.640312, 2.349083, -2.938465), (0.654646, 2.333379, -2.55232), (0.917366, 2.048527, -2.707702), (0.92128, 2.337122, -2.549602), (0.955976, 2.353541, -2.935238), (0.990518, 0.709502, -3.096918), (0.655375, 0.704783, -3.100331), (0.965751, 2.077073, -3.034375), (0.640347, 2.072508, -3.037705), (0.901544, 2.517526, -3.039335), (0.955976, 2.353541, -2.935238), (1.257035, 3.19719, -2.605842), (0.955976, 2.353541, -2.935238), (0.901544, 2.517526, -3.039335), (0.68385, 2.514457, -3.041557), (0.640312, 2.349083, -2.938465), (1.257035, 3.19719, -2.605842), (0.955976, 2.353541, -2.935238), (0.92128, 2.337122, -2.549602), (1.116262, 3.358445, -1.477116), (0.68385, 2.514457, -3.041557), (0.663202, 3.167964, -2.798037), (1.116262, 3.358445, -1.477116), (1.103535, 4.031642, -1.343392), (0.713248, 3.311103, -1.399327), (0.804636, 4.014406, -1.25142), (1.09833, 4.573714, -2.548998), (1.04076, 4.076639, -2.674126), (0.694325, 4.673957, -2.729339), (0.713388, 4.160544, -2.840164), (1.09833, 4.573714, -2.548998), (1.04076, 4.076639, -2.674126), (1.283822, 4.026922, -2.534397), (1.283822, 4.026922, -2.534397), (1.040873, 3.607135, -2.708147), (1.257035, 3.19719, -2.605842), (1.283822, 4.026922, -2.534397), (1.04076, 4.076639, -2.674126), (1.040873, 3.607135, -2.708147), (-0.654655, 2.332657, -2.552837), (-0.774263, 3.295676, -1.451246), (-0.921289, 2.336415, -2.550121), (-1.14524, 3.346195, -1.517343), (0.861954, 4.882729, -1.733177), (1.09833, 4.573714, -2.548998), (1.283822, 4.026922, -2.534397), (1.103535, 4.031642, -1.343392), (0, 5.437111, 5.050254), (0.241748, 5.334914, 4.979215), (0, 5.892326, 4.585902), (0.292065, 5.777282, 4.576022), (0.241748, 5.334914, 4.979215), (0.292065, 5.777282, 4.576022), (0.269545, 5.198797, 4.685863), (0.419349, 6.611207, 3.930942), (0.292065, 5.777282, 4.576022), (0.405499, 6.512895, 3.858908), (0.565847, 5.970677, 3.940696), (0.565847, 5.970677, 3.940696), (0.551208, 5.432856, 3.909907), (0.467789, 6.035401, 3.555036), (0.336321, 5.620806, 3.555036), (0.372346, 6.617138, 3.837767), (0.405499, 6.512895, 3.858908), (0.395341, 6.606164, 3.555036), (0.467789, 6.035401, 3.555036), (0.565847, 5.970677, 3.940696), (0, 5.289324, 3.870951), (0.551208, 5.432856, 3.909907), (0.336321, 5.620806, 3.555036), (0, 5.435465, 3.555036), (0.467789, 6.035401, 3.555036), (0.336321, 5.620806, 3.555036), (0.536218, 5.288834, 2.953779), (0.40475, 4.799928, 3.07138), (0.163367, 6.673668, 3.560834), (0.395341, 6.606164, 3.555036), (0.179987, 6.149928, 2.827763), (0.40475, 6.073393, 2.827763), (0.395341, 6.606164, 3.555036), (0.467789, 6.035401, 3.555036), (0.40475, 6.073393, 2.827763), (0.536218, 5.288834, 2.953779), (0.336321, 5.620806, 3.555036), (0, 5.435465, 3.555036), (0.40475, 4.799928, 3.07138), (0, 4.683845, 3.071295), (0.40475, 4.799928, 3.07138), (0, 4.683845, 3.071295), (0.461785, 3.48514, 2.714613), (-0.000003, 3.416173, 2.769023), (0.179987, 6.149928, 2.827763), (0.40475, 6.073393, 2.827763), (0.200429, 5.904698, 2.470427), (0.565554, 5.82135, 2.470427), (0.40475, 4.799928, 3.07138), (0.536218, 5.288834, 2.953779), (0.740841, 4.740146, 2.647091), (0.461785, 3.48514, 2.714613), (0.40475, 6.073393, 2.827763), (0.536218, 5.288834, 2.953779), (0.565554, 5.82135, 2.470427), (0.740841, 4.740146, 2.647091), (0.518799, 3.046494, 2.421076), (0.00001, 3.024603, 2.530051), (0.472156, 2.958288, 2.057703), (0.000005, 2.939545, 2.11872), (0.726358, 5.569306, 2.113092), (0.94494, 4.191893, 2.339496), (0.741272, 5.111347, 1.5325), (0.970338, 4.000442, 1.532918), (0.663202, 3.167964, -2.798037), (0.601292, 3.121481, -2.252149), (0.038311, 3.001347, -2.772704), (0, 2.9619, -2.218464), (0.045357, 3.528689, -3.027341), (0.7256, 3.572776, -2.848695), (0.713388, 4.160544, -2.840164), (0.028909, 4.346511, -3.023402), (0.038311, 3.001347, -2.772704), (0.663202, 3.167964, -2.798037), (0.7256, 3.572776, -2.848695), (0.045357, 3.528689, -3.027341), (1.04076, 4.076639, -2.674126), (1.040873, 3.607135, -2.708147), (0.713388, 4.160544, -2.840164), (0.7256, 3.572776, -2.848695), (1.103535, 4.031642, -1.343392), (1.283822, 4.026922, -2.534397), (1.257035, 3.19719, -2.605842), (1.116262, 3.358445, -1.477116), (0.00001, 2.673973, 1.030494), (0.735854, 2.871091, 1.392252), (0.695999, 2.772447, 0.486381), (0, 2.587026, 0.486316), (0.970338, 4.000442, 1.532918), (0.735854, 2.871091, 1.392252), (0.827468, 4.00024, 0.486586), (0.695999, 2.772447, 0.486381), (0.970338, 4.000442, 1.532918), (0.741272, 5.111347, 1.5325), (0.535677, 4.707325, 0.486572), (0.827468, 4.00024, 0.486586), (1.09833, 4.573714, -2.548998), (0.681349, 5.076027, -2.163273), (0.694325, 4.673957, -2.729339), (0.601292, 3.121481, -2.252149), (0.713248, 3.311103, -1.399327), (0.654646, 2.333379, -2.55232), (0.640312, 2.349083, -2.938465), (0.220871, 5.659468, 2.113092), (0.222469, 5.605947, 2.045192), (0.106887, 5.249205, 1.532324), (0.741272, 5.111347, 1.5325), (0.726358, 5.569306, 2.113092), (1.040873, 3.607135, -2.708147), (1.257035, 3.19719, -2.605842), (0.7256, 3.572776, -2.848695), (0.663202, 3.167964, -2.798037), (0.333837, 4.793797, -2.748441), (-0.020498, 5.098383, -2.517808), (0.694325, 4.673957, -2.729339), (0.681349, 5.076027, -2.163273), (-0.042504, 5.346962, -2.19981), (-0.042504, 5.346962, -2.19981), (0.681349, 5.076027, -2.163273), (0.683856, 5.002444, -1.453462), (-0.053741, 5.34179, -1.465466), (0.601292, 3.121481, -2.252149), (0.640312, 2.349083, -2.938465), (0.663202, 3.167964, -2.798037), (0, 2.9619, -2.218464), (0.601292, 3.121481, -2.252149), (-0.007988, 3.220451, -1.383917), (0.713248, 3.311103, -1.399327), (0.861954, 4.882729, -1.733177), (0.804636, 4.014406, -1.25142), (0.683856, 5.002444, -1.453462), (0.698995, 3.001755, -0.625136), (0.695999, 2.772447, 0.486381), (-0.000503, 2.81722, -0.628126), (0, 2.587026, 0.486316), (0.815146, 3.999108, -0.688936), (0.827468, 4.00024, 0.486586), (0.698995, 3.001755, -0.625136), (0.695999, 2.772447, 0.486381), (0.535677, 4.707325, 0.486572), (0.576045, 4.747162, -0.748641), (0.815146, 3.999108, -0.688936), (0.827468, 4.00024, 0.486586), (0.106887, 5.249205, 1.532324), (0, 4.893158, 0.486572), (0.535677, 4.707325, 0.486572), (-0.014739, 4.914258, -0.745708), (0, 4.893158, 0.486572), (0.576045, 4.747162, -0.748641), (0.535677, 4.707325, 0.486572), (-0.014739, 4.914258, -0.745708), (-0.053741, 5.34179, -1.465466), (0.683856, 5.002444, -1.453462), (0.576045, 4.747162, -0.748641), (0.576045, 4.747162, -0.748641), (0.683856, 5.002444, -1.453462), (-0.764672, 0.301358, 2.284487), (0.804636, 4.014406, -1.25142), (-1.086577, 0.30102, 2.283842), (0.815146, 3.999108, -0.688936), (-1.011035, 0.451571, 2.081105), (0.815146, 3.999108, -0.688936), (-1.011035, 0.451571, 2.081105), (0.804636, 4.014406, -1.25142), (-1.086577, 0.30102, 2.283842), (0.713248, 3.311103, -1.399327), (0.640312, 2.349083, -2.938465), (0.511988, 6.655884, 3.842929), (-1.075679, 0.277168, 1.811067), (0.698995, 3.001755, -0.625136), (0.92128, 2.337122, -2.549602), (0.584036, 6.882778, 3.939379), (-1.031338, 0.431865, 1.843256), (0.713248, 3.311103, -1.399327), (1.116262, 3.358445, -1.477116), (0.56009, 6.795597, 3.890247), (-1.031338, 0.431865, 1.843256), (0.698995, 3.001755, -0.625136), (0.654646, 2.333379, -2.55232), (0.620788, 6.923784, 3.93086), (-1.075679, 0.277168, 1.811067), (-0.007988, 3.220451, -1.383917), (0.741272, 5.111347, 1.5325), (0.713248, 3.311103, -1.399327), (0.584864, 6.817721, 3.880928), (-0.778768, 0.277971, 1.812381), (-0.000503, 2.81722, -0.628126)]
                uniform token subdivisionScheme = "none"
            }

            def Mesh "Horse_Cylinder_Material_006" (
                prepend apiSchemas = ["MaterialBindingAPI"]
            )
            {
                rel material:binding = </Horse/Materials/Material_006>
                int[] faceVertexCounts = [3, 3, 3, 3, 3, 3, 3, 3, 3, 3, 3, 3, 3, 3, 3, 3, 3, 3, 3, 3, 3, 3, 3, 3, 3, 3, 3, 3, 3, 3, 3, 3, 3, 3, 3, 3, 3, 3, 3, 3, 3, 3, 3, 3, 3, 3, 3, 3, 3, 3, 3, 3, 3, 3, 3, 3, 3, 3, 3, 3, 3, 3, 3, 3, 3, 3, 3, 3, 3, 3, 3, 3, 3, 3, 3, 3, 3, 3, 3, 3, 3, 3, 3, 3, 3, 3, 3, 3, 3, 3, 3, 3, 3, 3, 3, 3, 3, 3, 3, 3, 3, 3, 3, 3, 3, 3, 3, 3, 3, 3, 3, 3, 3, 3, 3, 3, 3, 3, 3, 3, 3, 3, 3, 3, 3, 3, 3, 3, 3, 3, 3, 3, 3, 3, 3, 3, 3, 3, 3, 3, 3, 3, 3, 3, 3, 3, 3, 3, 3, 3, 3, 3, 3, 3, 3, 3, 3, 3, 3, 3, 3, 3, 3, 3, 3, 3, 3, 3, 3, 3, 3, 3, 3, 3, 3, 3, 3, 3, 3, 3, 3, 3]
                int[] faceVertexIndices = [375, 373, 371, 373, 370, 371, 369, 368, 367, 369, 367, 366, 365, 364, 363, 365, 363, 362, 361, 360, 359, 360, 358, 359, 357, 356, 355, 356, 354, 355, 353, 352, 351, 350, 349, 348, 347, 346, 345, 344, 343, 342, 343, 341, 342, 340, 339, 338, 339, 337, 338, 336, 335, 334, 336, 334, 333, 332, 331, 330, 332, 330, 329, 328, 327, 326, 328, 326, 325, 324, 323, 322, 323, 321, 322, 320, 319, 318, 320, 318, 317, 316, 315, 314, 316, 314, 313, 312, 311, 310, 312, 310, 309, 308, 307, 306, 307, 305, 306, 304, 303, 302, 303, 301, 302, 300, 299, 298, 299, 297, 298, 296, 295, 294, 295, 293, 294, 292, 291, 290, 291, 289, 290, 288, 287, 286, 287, 285, 286, 284, 283, 282, 284, 282, 281, 280, 279, 278, 279, 277, 278, 276, 275, 274, 273, 272, 271, 270, 269, 268, 269, 267, 268, 266, 265, 264, 266, 264, 263, 262, 261, 260, 261, 259, 260, 258, 257, 256, 257, 255, 256, 254, 253, 252, 254, 252, 251, 250, 249, 248, 250, 248, 247, 246, 245, 244, 246, 244, 243, 242, 241, 240, 241, 239, 240, 238, 237, 236, 238, 236, 235, 234, 233, 232, 233, 231, 232, 230, 229, 228, 230, 228, 227, 226, 225, 224, 226, 224, 223, 222, 221, 220, 221, 219, 220, 218, 217, 216, 217, 215, 216, 214, 213, 212, 211, 210, 209, 208, 207, 206, 205, 204, 203, 204, 202, 203, 201, 200, 199, 198, 197, 196, 197, 195, 196, 194, 193, 192, 194, 192, 191, 190, 189, 188, 190, 188, 187, 186, 185, 184, 185, 183, 184, 182, 181, 180, 181, 179, 180, 374, 372, 178, 177, 176, 175, 174, 173, 172, 171, 170, 169, 170, 168, 169, 167, 166, 165, 166, 164, 165, 163, 162, 161, 162, 160, 161, 159, 158, 157, 159, 157, 156, 155, 154, 153, 155, 153, 152, 151, 150, 149, 150, 148, 149, 147, 146, 145, 147, 145, 144, 143, 142, 141, 142, 140, 141, 139, 138, 137, 139, 137, 136, 135, 134, 133, 134, 132, 133, 131, 130, 129, 130, 128, 129, 127, 126, 125, 126, 124, 125, 123, 122, 121, 122, 120, 121, 119, 118, 117, 118, 116, 117, 115, 114, 113, 114, 112, 113, 111, 110, 109, 111, 109, 108, 107, 106, 105, 106, 104, 105, 103, 102, 101, 100, 99, 98, 97, 96, 95, 96, 94, 95, 93, 92, 91, 93, 91, 90, 89, 88, 87, 88, 86, 87, 85, 84, 83, 84, 82, 83, 81, 80, 79, 81, 79, 78, 77, 76, 75, 77, 75, 74, 73, 72, 71, 72, 70, 71, 69, 68, 67, 68, 66, 67, 65, 64, 63, 65, 63, 62, 61, 60, 59, 60, 58, 59, 57, 56, 55, 57, 55, 54, 53, 52, 51, 53, 51, 50, 49, 48, 47, 48, 46, 47, 45, 44, 43, 44, 42, 43, 41, 40, 39, 38, 37, 36, 35, 34, 33, 32, 31, 30, 31, 29, 30, 28, 199, 200, 27, 26, 25, 27, 25, 24, 23, 22, 21, 23, 21, 20, 19, 18, 17, 19, 17, 16, 15, 14, 13, 15, 13, 12, 11, 10, 61, 10, 60, 61, 9, 8, 7, 9, 7, 6, 5, 234, 4, 234, 232, 4, 3, 2, 1, 3, 1, 0]
                normal3f[] normals = [(0.188, 0.8065, -0.5605), (0.188, 0.8065, -0.5605), (0.188, 0.8065, -0.5605), (0.188, 0.8065, -0.5605), (0.9715, -0.1659, 0.1694), (0.9715, -0.1659, 0.1694), (-0.188, 0.8065, -0.5605), (-0.188, 0.8065, -0.5605), (-0.188, 0.8065, -0.5605), (-0.188, 0.8065, -0.5605), (-0.9715, -0.1659, 0.1694), (-0.9715, -0.1659, 0.1694), (0.431, -0.0239, 0.902), (0.431, -0.0239, 0.902), (0.431, -0.0239, 0.902), (0.431, -0.0239, 0.902), (0.7003, 0.0279, -0.7133), (0.7003, 0.0279, -0.7133), (0.7003, 0.0279, -0.7133), (0.7003, 0.0279, -0.7133), (-0.5489, -0.0432, 0.8348), (-0.5489, -0.0432, 0.8348), (-0.5489, -0.0432, 0.8348), (-0.5489, -0.0432, 0.8348), (-0.5969, 0.0023, -0.8023), (-0.5969, 0.0023, -0.8023), (-0.5969, 0.0023, -0.8023), (-0.5969, 0.0023, -0.8023), (0, 0.0518, -0.9987), (-0.9102, 0.0782, 0.4066), (-0.9102, 0.0782, 0.4066), (-0.9102, 0.0782, 0.4066), (-0.9102, 0.0782, 0.4066), (-0.0084, 0.0562, -0.9984), (-0.0084, 0.0562, -0.9984), (-0.0084, 0.0562, -0.9984), (-0.2182, 0.9759, -0), (-0.2182, 0.9759, -0), (-0.2182, 0.9759, -0), (-0.0927, 0.7345, -0.6722), (-0.0927, 0.7345, -0.6722), (-0.0927, 0.7345, -0.6722), (-0.1928, 0.8037, -0.5629), (-0.1928, 0.8037, -0.5629), (-0.1928, 0.8037, -0.5629), (-0.1928, 0.8037, -0.5629), (-0.9731, -0.1764, 0.1481), (-0.9731, -0.1764, 0.1481), (-0.9731, -0.1764, 0.1481), (-0.9731, -0.1764, 0.1481), (-0.9724, -0.1715, 0.1581), (-0.9724, -0.1715, 0.1581), (-0.9724, -0.1715, 0.1581), (-0.9724, -0.1715, 0.1581), (-0.9646, -0.2611, -0.0361), (-0.9646, -0.2611, -0.0361), (-0.9646, -0.2611, -0.0361), (-0.9646, -0.2611, -0.0361), (-0.9715, -0.1659, 0.1694), (-0.9715, -0.1659, 0.1694), (-0.9715, -0.1659, 0.1694), (-0.9715, -0.1659, 0.1694), (-0.1403, 0.8124, -0.566), (-0.1403, 0.8124, -0.566), (-0.1403, 0.8124, -0.566), (-0.1403, 0.8124, -0.566), (0.9838, 0.1743, -0.0418), (0.9838, 0.1743, -0.0418), (0.9838, 0.1743, -0.0418), (0.9838, 0.1743, -0.0418), (0.0176, 0.2476, 0.9687), (0.0176, 0.2476, 0.9687), (0.0176, 0.2476, 0.9687), (0.0176, 0.2476, 0.9687), (-0.9991, 0.0215, 0.0378), (-0.9991, 0.0215, 0.0378), (-0.9991, 0.0215, 0.0378), (-0.9991, 0.0215, 0.0378), (-0.017, -0.0263, -0.9995), (-0.017, -0.0263, -0.9995), (-0.017, -0.0263, -0.9995), (-0.017, -0.0263, -0.9995), (0.9988, 0.0491, -0.0072), (0.9988, 0.0491, -0.0072), (0.9988, 0.0491, -0.0072), (0.9988, 0.0491, -0.0072), (-0.0023, 0.2327, 0.9725), (-0.0023, 0.2327, 0.9725), (-0.0023, 0.2327, 0.9725), (-0.0023, 0.2327, 0.9725), (-0.996, 0.0891, 0.0052), (-0.996, 0.0891, 0.0052), (-0.996, 0.0891, 0.0052), (-0.996, 0.0891, 0.0052), (0.0081, -0.0426, -0.9991), (0.0081, -0.0426, -0.9991), (0.0081, -0.0426, -0.9991), (0.0081, -0.0426, -0.9991), (-0.6113, -0.5048, -0.6095), (-0.6113, -0.5048, -0.6095), (-0.6113, -0.5048, -0.6095), (-0.7316, -0.1612, 0.6624), (-0.7316, -0.1612, 0.6624), (-0.7316, -0.1612, 0.6624), (-0.7422, -0.0201, -0.6699), (-0.7422, -0.0201, -0.6699), (-0.7422, -0.0201, -0.6699), (-0.7422, -0.0201, -0.6699), (-0.6697, -0.0544, 0.7406), (-0.6697, -0.0544, 0.7406), (-0.6697, -0.0544, 0.7406), (-0.6697, -0.0544, 0.7406), (-0.4825, -0.1767, 0.8579), (-0.4825, -0.1767, 0.8579), (-0.4825, -0.1767, 0.8579), (-0.4825, -0.1767, 0.8579), (-0.5791, 0.4256, -0.6954), (-0.5791, 0.4256, -0.6954), (-0.5791, 0.4256, -0.6954), (-0.5791, 0.4256, -0.6954), (-0.4452, -0.6516, 0.6141), (-0.4452, -0.6516, 0.6141), (-0.4452, -0.6516, 0.6141), (-0.4452, -0.6516, 0.6141), (-0.6799, 0.7309, -0.0594), (-0.6799, 0.7309, -0.0594), (-0.6799, 0.7309, -0.0594), (-0.6799, 0.7309, -0.0594), (-0.6085, 0.7314, -0.3077), (-0.6085, 0.7314, -0.3077), (-0.6085, 0.7314, -0.3077), (-0.6085, 0.7314, -0.3077), (0.0116, -0.0059, -0.9999), (0.0116, -0.0059, -0.9999), (0.0116, -0.0059, -0.9999), (0.0116, -0.0059, -0.9999), (-0.9956, 0.0793, 0.0489), (-0.9956, 0.0793, 0.0489), (-0.9956, 0.0793, 0.0489), (-0.9956, 0.0793, 0.0489), (-0.0024, 0.226, 0.9741), (-0.0024, 0.226, 0.9741), (-0.0024, 0.226, 0.9741), (-0.0024, 0.226, 0.9741), (0.0005, -1, -0.0002), (0.0005, -1, -0.0002), (0.0005, -1, -0.0002), (0.0005, -1, -0.0002), (0.997, 0.0715, 0.0296), (0.997, 0.0715, 0.0296), (0.997, 0.0715, 0.0296), (0.997, 0.0715, 0.0296), (-0.0116, -0.0048, -0.9999), (-0.0116, -0.0048, -0.9999), (-0.0116, -0.0048, -0.9999), (-0.0116, -0.0048, -0.9999), (-0.9952, 0.0672, 0.0711), (-0.9952, 0.0672, 0.0711), (-0.9952, 0.0672, 0.0711), (-0.9952, 0.0672, 0.0711), (0.0086, 0.2301, 0.9731), (0.0086, 0.2301, 0.9731), (0.0086, 0.2301, 0.9731), (0.0086, 0.2301, 0.9731), (-0.0029, -1, -0.0006), (-0.0029, -1, -0.0006), (-0.0029, -1, -0.0006), (-0.0029, -1, -0.0006), (0.9957, 0.0931, -0.0034), (0.9957, 0.0931, -0.0034), (0.9957, 0.0931, -0.0034), (0.9957, 0.0931, -0.0034), (-0.9962, 0.0191, 0.0856), (-0.9962, 0.0191, 0.0856), (-0.9962, 0.0191, 0.0856), (-0.964, -0.2656, -0.0135), (-0.964, -0.2656, -0.0135), (-0.964, -0.2656, -0.0135), (-0.9965, 0.0335, -0.0768), (-0.1149, -0.5185, -0.8473), (-0.1149, -0.5185, -0.8473), (-0.1149, -0.5185, -0.8473), (-0.1149, -0.5185, -0.8473), (-0.1852, -0.8707, 0.4557), (-0.1852, -0.8707, 0.4557), (-0.1852, -0.8707, 0.4557), (-0.1852, -0.8707, 0.4557), (-0.2378, -0.3342, 0.912), (-0.2378, -0.3342, 0.912), (-0.2378, -0.3342, 0.912), (-0.2378, -0.3342, 0.912), (-0.4522, 0.5722, 0.6841), (-0.4522, 0.5722, 0.6841), (-0.4522, 0.5722, 0.6841), (-0.4522, 0.5722, 0.6841), (-0.5069, -0.8619, -0.0128), (-0.5069, -0.8619, -0.0128), (-0.5069, -0.8619, -0.0128), (-0.5069, -0.8619, -0.0128), (0, 0.0518, -0.9987), (0, 0.0518, -0.9987), (0, 0.0518, -0.9987), (0.9102, 0.0782, 0.4066), (0.9102, 0.0782, 0.4066), (0.9102, 0.0782, 0.4066), (0.9102, 0.0782, 0.4066), (0.0084, 0.0562, -0.9984), (0.0084, 0.0562, -0.9984), (0.0084, 0.0562, -0.9984), (0.2182, 0.9759, 0), (0.2182, 0.9759, 0), (0.2182, 0.9759, 0), (0.0927, 0.7345, -0.6722), (0.0927, 0.7345, -0.6722), (0.0927, 0.7345, -0.6722), (0.1928, 0.8037, -0.5629), (0.1928, 0.8037, -0.5629), (0.1928, 0.8037, -0.5629), (0.1928, 0.8037, -0.5629), (0.9731, -0.1764, 0.1481), (0.9731, -0.1764, 0.1481), (0.9731, -0.1764, 0.1481), (0.9731, -0.1764, 0.1481), (0.9724, -0.1715, 0.1581), (0.9724, -0.1715, 0.1581), (0.9724, -0.1715, 0.1581), (0.9724, -0.1715, 0.1581), (0.9646, -0.2611, -0.0361), (0.9646, -0.2611, -0.0361), (0.9646, -0.2611, -0.0361), (0.9646, -0.2611, -0.0361), (0.9715, -0.1659, 0.1694), (0.9715, -0.1659, 0.1694), (0.9715, -0.1659, 0.1694), (0.9715, -0.1659, 0.1694), (0.1403, 0.8124, -0.566), (0.1403, 0.8124, -0.566), (0.1403, 0.8124, -0.566), (0.1403, 0.8124, -0.566), (-0.9874, 0.1453, -0.0631), (-0.9874, 0.1453, -0.0631), (-0.9874, 0.1453, -0.0631), (-0.9874, 0.1453, -0.0631), (-0.0023, 0.2329, 0.9725), (-0.0023, 0.2329, 0.9725), (-0.0023, 0.2329, 0.9725), (-0.0023, 0.2329, 0.9725), (0.9986, 0.003, 0.0521), (0.9986, 0.003, 0.0521), (0.9986, 0.003, 0.0521), (0.9986, 0.003, 0.0521), (0.0097, -0.0342, -0.9994), (0.0097, -0.0342, -0.9994), (0.0097, -0.0342, -0.9994), (0.0097, -0.0342, -0.9994), (-0.9989, 0.047, -0.0069), (-0.9989, 0.047, -0.0069), (-0.9989, 0.047, -0.0069), (-0.9989, 0.047, -0.0069), (0.0041, 0.2334, 0.9724), (0.0041, 0.2334, 0.9724), (0.0041, 0.2334, 0.9724), (0.0041, 0.2334, 0.9724), (0.996, 0.0892, 0.006), (0.996, 0.0892, 0.006), (0.996, 0.0892, 0.006), (0.996, 0.0892, 0.006), (-0.0078, -0.0447, -0.999), (-0.0078, -0.0447, -0.999), (-0.0078, -0.0447, -0.999), (-0.0078, -0.0447, -0.999), (0.7082, -0.4787, -0.5189), (0.7082, -0.4787, -0.5189), (0.7082, -0.4787, -0.5189), (0.64, -0.134, 0.7566), (0.64, -0.134, 0.7566), (0.64, -0.134, 0.7566), (0.8269, 0.0109, -0.5622), (0.8269, 0.0109, -0.5622), (0.8269, 0.0109, -0.5622), (0.8269, 0.0109, -0.5622), (0.5639, -0.03, 0.8253), (0.5639, -0.03, 0.8253), (0.5639, -0.03, 0.8253), (0.5639, -0.03, 0.8253), (0.3674, -0.1599, 0.9162), (0.3674, -0.1599, 0.9162), (0.3674, -0.1599, 0.9162), (0.3674, -0.1599, 0.9162), (0.6514, 0.45, -0.6109), (0.6514, 0.45, -0.6109), (0.6514, 0.45, -0.6109), (0.6514, 0.45, -0.6109), (0.3825, -0.6353, 0.6709), (0.3825, -0.6353, 0.6709), (0.3825, -0.6353, 0.6709), (0.3825, -0.6353, 0.6709), (0.6525, 0.7571, 0.0318), (0.6525, 0.7571, 0.0318), (0.6525, 0.7571, 0.0318), (0.6525, 0.7571, 0.0318), (0.6156, 0.7557, -0.2236), (0.6156, 0.7557, -0.2236), (0.6156, 0.7557, -0.2236), (0.6156, 0.7557, -0.2236), (-0.0125, -0.0059, -0.9999), (-0.0125, -0.0059, -0.9999), (-0.0125, -0.0059, -0.9999), (-0.0125, -0.0059, -0.9999), (0.9956, 0.0793, 0.0496), (0.9956, 0.0793, 0.0496), (0.9956, 0.0793, 0.0496), (0.9956, 0.0793, 0.0496), (0.0038, 0.2238, 0.9746), (0.0038, 0.2238, 0.9746), (0.0038, 0.2238, 0.9746), (0.0038, 0.2238, 0.9746), (-0.0006, -1, -0.0002), (-0.0006, -1, -0.0002), (-0.0006, -1, -0.0002), (-0.0006, -1, -0.0002), (-0.9969, 0.0731, 0.0291), (-0.9969, 0.0731, 0.0291), (-0.9969, 0.0731, 0.0291), (-0.9969, 0.0731, 0.0291), (0.006, -0.0167, -0.9998), (0.006, -0.0167, -0.9998), (0.006, -0.0167, -0.9998), (0.006, -0.0167, -0.9998), (0.9965, 0.0416, 0.0721), (0.9965, 0.0416, 0.0721), (0.9965, 0.0416, 0.0721), (0.9965, 0.0416, 0.0721), (-0.0015, 0.2266, 0.974), (-0.0015, 0.2266, 0.974), (-0.0015, 0.2266, 0.974), (-0.0015, 0.2266, 0.974), (0.0017, -1, -0.0006), (0.0017, -1, -0.0006), (0.0017, -1, -0.0006), (0.0017, -1, -0.0006), (-0.9949, 0.1011, -0.0037), (-0.9949, 0.1011, -0.0037), (-0.9949, 0.1011, -0.0037), (-0.9949, 0.1011, -0.0037), (0.9962, 0.0191, 0.0855), (0.9962, 0.0191, 0.0855), (0.9962, 0.0191, 0.0855), (0.964, -0.2656, -0.0135), (0.964, -0.2656, -0.0135), (0.964, -0.2656, -0.0135), (0.9965, 0.0335, -0.0768), (0.9965, 0.0335, -0.0768), (0.9965, 0.0335, -0.0768), (0.1149, -0.5185, -0.8473), (0.1149, -0.5185, -0.8473), (0.1149, -0.5185, -0.8473), (0.1149, -0.5185, -0.8473), (0.1852, -0.8707, 0.4557), (0.1852, -0.8707, 0.4557), (0.1852, -0.8707, 0.4557), (0.1852, -0.8707, 0.4557), (0.2378, -0.3342, 0.912), (0.2378, -0.3342, 0.912), (0.2378, -0.3342, 0.912), (0.2378, -0.3342, 0.912), (0.4522, 0.5722, 0.6841), (0.4522, 0.5722, 0.6841), (0.4522, 0.5722, 0.6841), (0.4522, 0.5722, 0.6841), (0.5375, -0.8412, 0.0589), (0.5375, -0.8412, 0.0589), (-0.9965, 0.0335, -0.0768), (0.5375, -0.8412, 0.0589), (-0.9965, 0.0335, -0.0768), (0.5375, -0.8412, 0.0589)]
                point3f[] points = [(0, 6.405094, 2.735383), (0, 6.148918, 2.378047), (0.249642, 6.098576, 2.378047), (0.229199, 6.343806, 2.735383), (0.229199, 6.343806, 2.735383), (0.179987, 6.149928, 2.827763), (-0.249642, 6.098576, 2.378047), (0, 6.148918, 2.378047), (0, 6.405094, 2.735383), (-0.229199, 6.343806, 2.735383), (-0.229199, 6.343806, 2.735383), (-0.179987, 6.149928, 2.827763), (0.514531, 3.521258, -3.550209), (0.065764, 3.433443, -3.297201), (0.053054, 4.132645, -3.31354), (0.596229, 4.256996, -3.528874), (0.110743, 3.694029, -4.027605), (0.514531, 3.521258, -3.550209), (0.596229, 4.256996, -3.528874), (0.089218, 4.448656, -3.931481), (0.053054, 4.132645, -3.31354), (0.065764, 3.433443, -3.297201), (-0.347347, 3.504209, -3.609366), (-0.46009, 4.2361, -3.601378), (-0.46009, 4.2361, -3.601378), (-0.347347, 3.504209, -3.609366), (0.110743, 3.694029, -4.027605), (0.089218, 4.448656, -3.931481), (-0.106887, 5.249205, 1.532324), (-0.21258, 6.867546, 3.468454), (-0.163367, 6.673668, 3.560834), (0, 6.915087, 3.880108), (0, 6.721209, 3.972487), (-0.106887, 5.249205, 1.532324), (0, 5.453447, 1.542921), (-0.156099, 5.430211, 1.542921), (-0.21258, 6.867546, 3.468454), (0, 6.915086, 3.472537), (0, 6.915087, 3.880108), (-0.270084, 5.853346, 2.020712), (-0.271681, 5.799825, 1.952813), (-0.156099, 5.430211, 1.542921), (0, 6.405094, 2.735383), (-0.229199, 6.343806, 2.735383), (0, 6.915086, 3.472537), (-0.21258, 6.867546, 3.468454), (-0.229199, 6.343806, 2.735383), (-0.179987, 6.149928, 2.827763), (-0.21258, 6.867546, 3.468454), (-0.163367, 6.673668, 3.560834), (-0.222469, 5.605947, 2.045192), (-0.271681, 5.799825, 1.952813), (-0.270084, 5.853346, 2.020712), (-0.220871, 5.659468, 2.113092), (-0.106887, 5.249205, 1.532324), (-0.156099, 5.430211, 1.542921), (-0.271681, 5.799825, 1.952813), (-0.222469, 5.605947, 2.045192), (-0.270084, 5.853346, 2.020712), (-0.220871, 5.659468, 2.113092), (-0.249642, 6.098576, 2.378047), (-0.200429, 5.904698, 2.470427), (-0.270084, 5.853346, 2.020712), (0, 5.892743, 2.020712), (0, 6.148918, 2.378047), (-0.249642, 6.098576, 2.378047), (-0.62907, 0.122644, -2.898587), (-0.67047, 0.276609, -2.903809), (-0.621315, 0.132091, -2.349311), (-0.638868, 0.299023, -2.393821), (-0.621315, 0.132091, -2.349311), (-0.638868, 0.299023, -2.393821), (-0.932907, 0.133053, -2.346059), (-0.942595, 0.301743, -2.386841), (-0.942595, 0.301743, -2.386841), (-0.932907, 0.133053, -2.346059), (-0.965618, 0.124119, -2.894781), (-0.95061, 0.278726, -2.897216), (-0.95061, 0.278726, -2.897216), (-0.965618, 0.124119, -2.894781), (-0.62907, 0.122644, -2.898587), (-0.67047, 0.276609, -2.903809), (-0.758565, 0.108687, 1.820819), (-0.778768, 0.277971, 1.812381), (-0.767112, 0.116986, 2.328624), (-0.764672, 0.301358, 2.284487), (-0.767112, 0.116986, 2.328624), (-0.764672, 0.301358, 2.284487), (-1.087329, 0.116812, 2.327901), (-1.086577, 0.30102, 2.283842), (-1.086577, 0.30102, 2.283842), (-1.087329, 0.116812, 2.327901), (-1.106221, 0.108476, 1.816948), (-1.075679, 0.277168, 1.811067), (-1.106221, 0.108476, 1.816948), (-1.075679, 0.277168, 1.811067), (-0.758565, 0.108687, 1.820819), (-0.778768, 0.277971, 1.812381), (-0.234604, 2.772317, -3.617355), (0.099461, 2.115324, -3.408251), (0.132269, 2.939402, -4.123728), (0.078474, 2.734242, -3.280861), (0.099461, 2.115324, -3.408251), (-0.234604, 2.772317, -3.617355), (-0.234604, 2.772317, -3.617355), (-0.347347, 3.504209, -3.609366), (0.132269, 2.939402, -4.123728), (0.110743, 3.694029, -4.027605), (0.065764, 3.433443, -3.297201), (0.078474, 2.734242, -3.280861), (-0.234604, 2.772317, -3.617355), (-0.347347, 3.504209, -3.609366), (0.053054, 4.132645, -3.31354), (0.045005, 4.420638, -3.279274), (-0.46009, 4.2361, -3.601378), (-0.3734, 4.591239, -3.458949), (-0.46009, 4.2361, -3.601378), (-0.3734, 4.591239, -3.458949), (0.089218, 4.448656, -3.931481), (0.060225, 4.887955, -3.635685), (0.045005, 4.420638, -3.279274), (0.035338, 4.572737, -3.182261), (-0.3734, 4.591239, -3.458949), (-0.316823, 4.769583, -3.171317), (-0.316823, 4.769583, -3.171317), (-0.328083, 4.780703, -2.793875), (0.017666, 5.079807, -3.070931), (-0.020498, 5.098383, -2.517808), (-0.3734, 4.591239, -3.458949), (-0.316823, 4.769583, -3.171317), (0.060225, 4.887955, -3.635685), (0.017666, 5.079807, -3.070931), (-1.120263, 0.018414, 1.817147), (-1.106221, 0.108476, 1.816948), (-0.744991, 0.018596, 1.821673), (-0.758565, 0.108687, 1.820819), (-1.087329, 0.116812, 2.327901), (-1.087176, 0.01831, 2.350736), (-1.120263, 0.018414, 1.817147), (-1.106221, 0.108476, 1.816948), (-0.767863, 0.018461, 2.351493), (-0.767112, 0.116986, 2.328624), (-1.087176, 0.01831, 2.350736), (-1.087329, 0.116812, 2.327901), (-0.744991, 0.018596, 1.821673), (-1.120263, 0.018414, 1.817147), (-1.087176, 0.01831, 2.350736), (-0.767863, 0.018461, 2.351493), (-0.744991, 0.018596, 1.821673), (-0.758565, 0.108687, 1.820819), (-0.767863, 0.018461, 2.351493), (-0.767112, 0.116986, 2.328624), (-0.965618, 0.124119, -2.894781), (-0.979742, 0.0193, -2.894011), (-0.612532, 0.017886, -2.898386), (-0.62907, 0.122644, -2.898587), (-0.932907, 0.133053, -2.346059), (-0.931666, 0.018461, -2.319703), (-0.979742, 0.0193, -2.894011), (-0.965618, 0.124119, -2.894781), (-0.61729, 0.01793, -2.32162), (-0.621315, 0.132091, -2.349311), (-0.931666, 0.018461, -2.319703), (-0.932907, 0.133053, -2.346059), (-0.979742, 0.0193, -2.894011), (-0.612532, 0.017886, -2.898386), (-0.931666, 0.018461, -2.319703), (-0.61729, 0.01793, -2.32162), (-0.612532, 0.017886, -2.898386), (-0.62907, 0.122644, -2.898587), (-0.61729, 0.01793, -2.32162), (-0.621315, 0.132091, -2.349311), (-0.241748, 5.334914, 4.979215), (-0.247868, 5.106231, 4.958891), (-0.269545, 5.198797, 4.685864), (-0.269545, 5.198797, 4.685864), (-0.247868, 5.106231, 4.958891), (-0.218171, 5.007426, 4.781865), (-0.247868, 5.106231, 4.958891), (0, 5.095792, 4.698215), (0, 4.966029, 4.791746), (-0.269545, 5.198797, 4.685864), (-0.218171, 5.007426, 4.781865), (0, 4.966029, 4.791746), (0, 5.090303, 5.02885), (-0.218171, 5.007426, 4.781865), (-0.247868, 5.106231, 4.958891), (0, 5.361249, 5.116979), (0, 5.090303, 5.02885), (-0.247868, 5.106231, 4.958891), (-0.247868, 5.266789, 5.028877), (0, 5.437111, 5.050254), (0, 5.361249, 5.116979), (-0.247868, 5.266789, 5.028877), (-0.241748, 5.334914, 4.979215), (0.035338, 4.572737, -3.182261), (0.017532, 4.569221, -2.921826), (-0.316823, 4.769583, -3.171317), (-0.328083, 4.780703, -2.793875), (0, 5.453447, 1.542921), (0, 5.249205, 1.532324), (0.106887, 5.249205, 1.532324), (0.21258, 6.867546, 3.468454), (0, 6.915087, 3.880108), (0.163367, 6.673668, 3.560834), (0, 6.721209, 3.972487), (0, 5.453447, 1.542921), (0.106887, 5.249205, 1.532324), (0.156099, 5.430211, 1.542921), (0, 6.915086, 3.472537), (0.21258, 6.867546, 3.468454), (0, 6.915087, 3.880108), (0.156099, 5.430211, 1.542921), (0.271681, 5.799825, 1.952813), (0.270084, 5.853346, 2.020712), (0, 6.405094, 2.735383), (0, 6.915086, 3.472537), (0.229199, 6.343806, 2.735383), (0.21258, 6.867546, 3.468454), (0.229199, 6.343806, 2.735383), (0.21258, 6.867546, 3.468454), (0.179987, 6.149928, 2.827763), (0.163367, 6.673668, 3.560834), (0.270084, 5.853346, 2.020712), (0.271681, 5.799825, 1.952813), (0.222469, 5.605947, 2.045192), (0.220871, 5.659468, 2.113092), (0.271681, 5.799825, 1.952813), (0.156099, 5.430211, 1.542921), (0.106887, 5.249205, 1.532324), (0.222469, 5.605947, 2.045192), (0.270084, 5.853346, 2.020712), (0.249642, 6.098576, 2.378047), (0.220871, 5.659468, 2.113092), (0.200429, 5.904698, 2.470427), (0, 6.148918, 2.378047), (0, 5.892743, 2.020712), (0.270084, 5.853346, 2.020712), (0.249642, 6.098576, 2.378047), (0.625858, 0.122984, -2.897416), (0.614095, 0.132819, -2.346809), (0.670925, 0.277216, -2.903501), (0.61944, 0.30091, -2.387249), (0.933998, 0.133091, -2.346331), (0.614095, 0.132819, -2.346809), (0.61944, 0.30091, -2.387249), (0.941812, 0.301884, -2.38653), (0.968894, 0.12461, -2.895372), (0.933998, 0.133091, -2.346331), (0.941812, 0.301884, -2.38653), (0.962419, 0.280163, -2.899527), (0.625858, 0.122984, -2.897416), (0.968894, 0.12461, -2.895372), (0.962419, 0.280163, -2.899527), (0.670925, 0.277216, -2.903501), (0.758972, 0.108621, 1.821364), (0.767399, 0.117029, 2.328996), (0.778547, 0.277854, 1.812116), (0.76484, 0.301351, 2.284708), (0.767399, 0.117029, 2.328996), (1.087143, 0.116748, 2.327667), (0.76484, 0.301351, 2.284708), (1.086315, 0.30091, 2.28352), (1.106349, 0.108401, 1.817129), (1.087143, 0.116748, 2.327667), (1.086315, 0.30091, 2.28352), (1.075878, 0.277011, 1.811352), (1.106349, 0.108401, 1.817129), (0.758972, 0.108621, 1.821364), (1.075878, 0.277011, 1.811352), (0.778547, 0.277854, 1.812116), (0.099461, 2.115324, -3.408251), (0.432833, 2.78552, -3.571543), (0.132269, 2.939402, -4.123728), (0.099461, 2.115324, -3.408251), (0.078474, 2.734242, -3.280861), (0.432833, 2.78552, -3.571543), (0.432833, 2.78552, -3.571543), (0.132269, 2.939402, -4.123728), (0.514531, 3.521258, -3.550209), (0.110743, 3.694029, -4.027605), (0.432833, 2.78552, -3.571543), (0.078474, 2.734242, -3.280861), (0.065764, 3.433443, -3.297201), (0.514531, 3.521258, -3.550209), (0.053054, 4.132645, -3.31354), (0.596229, 4.256996, -3.528874), (0.045005, 4.420638, -3.279274), (0.476987, 4.608062, -3.40058), (0.596229, 4.256996, -3.528874), (0.089218, 4.448656, -3.931481), (0.476987, 4.608062, -3.40058), (0.060225, 4.887955, -3.635685), (0.045005, 4.420638, -3.279274), (0.476987, 4.608062, -3.40058), (0.035338, 4.572737, -3.182261), (0.37468, 4.783262, -3.123854), (0.37468, 4.783262, -3.123854), (0.017666, 5.079807, -3.070931), (0.333837, 4.793797, -2.748441), (-0.020498, 5.098383, -2.517808), (0.476987, 4.608062, -3.40058), (0.060225, 4.887955, -3.635685), (0.37468, 4.783262, -3.123854), (0.017666, 5.079807, -3.070931), (1.120423, 0.018342, 1.81737), (0.745366, 0.018541, 1.822176), (1.106349, 0.108401, 1.817129), (0.758972, 0.108621, 1.821364), (1.120423, 0.018342, 1.81737), (1.086938, 0.018236, 2.350433), (1.087143, 0.116748, 2.327667), (1.106349, 0.108401, 1.817129), (1.086938, 0.018236, 2.350433), (0.767863, 0.018461, 2.351493), (0.767399, 0.117029, 2.328996), (1.087143, 0.116748, 2.327667), (1.086938, 0.018236, 2.350433), (1.120423, 0.018342, 1.81737), (0.745366, 0.018541, 1.822176), (0.767863, 0.018461, 2.351493), (0.745366, 0.018541, 1.822176), (0.767863, 0.018461, 2.351493), (0.758972, 0.108621, 1.821364), (0.767399, 0.117029, 2.328996), (0.604516, 0.018275, -2.89577), (0.97835, 0.019324, -2.893588), (0.968894, 0.12461, -2.895372), (0.625858, 0.122984, -2.897416), (0.97835, 0.019324, -2.893588), (0.931666, 0.018461, -2.319703), (0.933998, 0.133091, -2.346331), (0.968894, 0.12461, -2.895372), (0.931666, 0.018461, -2.319703), (0.613057, 0.018356, -2.320138), (0.614095, 0.132819, -2.346809), (0.933998, 0.133091, -2.346331), (0.97835, 0.019324, -2.893588), (0.931666, 0.018461, -2.319703), (0.604516, 0.018275, -2.89577), (0.613057, 0.018356, -2.320138), (0.604516, 0.018275, -2.89577), (0.613057, 0.018356, -2.320138), (0.625858, 0.122984, -2.897416), (0.614095, 0.132819, -2.346809), (0.247868, 5.106231, 4.958891), (0.241748, 5.334914, 4.979215), (0.269545, 5.198797, 4.685863), (0.247868, 5.106231, 4.958891), (0.269545, 5.198797, 4.685863), (0.218171, 5.007426, 4.781865), (0.241748, 5.334914, 4.979215), (0.247868, 5.106231, 4.958891), (0.247868, 5.266789, 5.028877), (0, 5.095792, 4.698215), (0.269545, 5.198797, 4.685863), (0, 4.966029, 4.791746), (0.218171, 5.007426, 4.781865), (0, 4.966029, 4.791746), (0.218171, 5.007426, 4.781865), (0, 5.090303, 5.02885), (0.247868, 5.106231, 4.958891), (0.247868, 5.106231, 4.958891), (0, 5.090303, 5.02885), (0, 5.361249, 5.116979), (0.247868, 5.266789, 5.028877), (0.247868, 5.266789, 5.028877), (0, 5.361249, 5.116979), (0, 5.437111, 5.050254), (0.241748, 5.334914, 4.979215), (0.035338, 4.572737, -3.182261), (0.37468, 4.783262, -3.123854), (-0.241748, 5.334914, 4.979215), (0.017532, 4.569221, -2.921826), (-0.247868, 5.266789, 5.028877), (0.333837, 4.793797, -2.748441)]
                uniform token subdivisionScheme = "none"
            }
        }
    }

    def Scope "Materials"
    {
        def Material "Material_003"
        {
            token outputs:surface.connect = </Horse/Materials/Material_003/surfaceShader.outputs:surface>

            def Shader "surfaceShader"
            {
                uniform token info:id = "UsdPreviewSurface"
                float inputs:clearcoat = 0
                color3f inputs:diffuseColor = (0.139718, 0.059371, 0.037332)
                color3f inputs:emissiveColor = (0, 0, 0)
                float inputs:metallic = 0
                float inputs:opacity = 1
                float inputs:roughness = 0.9
                token outputs:surface
            }
        }

        def Material "Material_006"
        {
            token outputs:surface.connect = </Horse/Materials/Material_006/surfaceShader.outputs:surface>

            def Shader "surfaceShader"
            {
                uniform token info:id = "UsdPreviewSurface"
                float inputs:clearcoat = 0
                color3f inputs:diffuseColor = (0.016303, 0.016303, 0.016303)
                color3f inputs:emissiveColor = (0, 0, 0)
                float inputs:metallic = 0
                float inputs:opacity = 1
                float inputs:roughness = 0.9
                token outputs:surface
            }
        }
    }
}

